<?xml version="1.0" encoding="utf-8"?>
<!-- Generator: Adobe Illustrator 17.0.0, SVG Export Plug-In . SVG Version: 6.00 Build 0)  -->
<!DOCTYPE svg PUBLIC "-//W3C//DTD SVG 1.1//EN" "http://www.w3.org/Graphics/SVG/1.1/DTD/svg11.dtd">
<svg version="1.1" id="Layer_1" xmlns="http://www.w3.org/2000/svg" xmlns:xlink="http://www.w3.org/1999/xlink" x="0px" y="0px"
	 width="438.609px" height="93.107px" viewBox="24.16 3.957 438.609 93.107" enable-background="new 24.16 3.957 438.609 93.107"
	 xml:space="preserve">
<g>
	<path fill-rule="evenodd" clip-rule="evenodd" fill="#F26522" d="M64.855,97.064c-1.768,0-3.497-0.544-5.284-1.666l-14.783-8.753
		V42.74c-0.021-2.419,0.821-4.145,2.578-5.274l10.453-5.613l-12.355-7.577l-11.37,6.849c-1.309,0.814-1.88,2.03-1.845,3.935v32.673
		c-0.035,1.507,0.607,2.783,1.957,3.879V37.449c-0.03-2.267,0.889-3.889,2.811-4.939l8.904-4.708l6.721,4.213l-8.914,5.081
		c-1.173,0.665-1.295,2.086-1.262,2.872v45.422l-15.114-8.155c-2.034-1.379-3.079-3.506-3.182-6.369V30.15
		c-0.138-1.495,0.991-3.117,3.457-4.885L44.907,15.12l38.379,22.696c1.442,1.012,1.901,2.895,1.873,4.213v11.741l12.124-6.53
		l-0.091-13.281c-0.033-1.54-0.786-2.652-2.442-3.593L66.649,13.694c-0.749-0.467-1.505-0.691-2.333-0.691
		c-0.623,0-1.292,0.133-2.002,0.394l29.382,17.431c1.967,1.131,2.89,2.75,2.813,4.939l-0.497,10.061l-7.047,3.628l0.175-10.257
		c0.028-1.351-1.131-2.177-1.824-2.552L46.249,13.473l14.725-8.839c0.98-0.464,1.934-0.677,2.909-0.677
		c1.332,0,2.743,0.401,4.192,1.194l35.018,20.771c1.358,0.642,2.179,2.44,2.438,5.463l-0.089,20.034L82.622,64.062l-14.615,8.643
		c-0.7,0.373-1.367,0.546-2.074,0.546c-0.919,0-1.927-0.296-3.168-0.931l-10.446-5.547v14.715l9.625,5.774
		c1.087,0.616,2.149,0.933,3.131,0.933c0.886,0,1.726-0.247,2.566-0.751l29.083-16.542c0.73-0.868,0.921-1.911,0.856-3.217
		l-30,16.843c-0.525,0.245-1.026,0.352-1.554,0.352c-0.784,0-1.612-0.231-2.533-0.702l-8.305-4.705V71.06l8.918,5.419
		c0.404,0.152,0.875,0.247,1.337,0.247c0.665,0,1.325-0.196,2.025-0.602l38.039-21.455v16.593c-0.154,1.997-0.76,4.421-4.127,6.051
		c-10.577,6.037-21.023,12.114-31.001,18.042C68.445,96.506,66.637,97.064,64.855,97.064z M64.932,65.45l12.562-7.376V43.302
		l-12.562-7.374L52.37,43.302v14.771L64.932,65.45z"/>
</g>
<g>
	<path fill="#F26522" d="M141.873,67.786c-2.251-2.249-3.996-4.816-5.235-7.701c-1.298-3.027-1.947-6.185-1.947-9.474
		c0-6.748,2.393-12.516,7.182-17.304c2.277-2.249,4.888-3.993,7.829-5.234c3.028-1.298,6.214-1.947,9.56-1.947
		c6.749,0,12.53,2.393,17.348,7.18c2.249,2.249,3.993,4.846,5.234,7.787c1.298,3.028,1.947,6.201,1.947,9.516
		c0,1.125-0.39,2.077-1.167,2.855c-0.808,0.808-1.774,1.211-2.899,1.211H143.3c0.922,3.519,2.855,6.417,5.796,8.696
		c2.971,2.307,6.36,3.461,10.166,3.461c5.998,0,10.628-1.832,13.887-5.494c0.72-0.836,1.644-1.283,2.768-1.342
		c1.125-0.057,2.104,0.275,2.942,0.995c0.835,0.751,1.282,1.688,1.341,2.812c0.057,1.097-0.288,2.063-1.038,2.898
		c-4.846,5.481-11.479,8.22-19.9,8.22C152.484,74.924,146.688,72.545,141.873,67.786z M175.182,46.545
		c-0.923-3.576-2.842-6.517-5.754-8.824c-2.999-2.336-6.388-3.505-10.166-3.505c-3.806,0-7.21,1.169-10.209,3.505
		c-2.914,2.307-4.831,5.249-5.753,8.824H175.182z"/>
	<path fill="#F26522" d="M226.011,68.348c0.691,0.866,0.979,1.861,0.865,2.986c-0.116,1.097-0.606,1.989-1.47,2.682
		c-0.751,0.606-1.601,0.909-2.552,0.909c-1.298,0-2.352-0.504-3.158-1.514l-13.195-16.438l-13.195,16.438
		c-0.807,1.01-1.86,1.514-3.158,1.514c-0.951,0-1.788-0.303-2.508-0.909c-0.894-0.692-1.399-1.585-1.514-2.682
		c-0.116-1.125,0.173-2.12,0.865-2.986l14.319-17.823L186.99,32.702c-0.691-0.865-0.981-1.845-0.865-2.942
		c0.115-1.125,0.62-2.032,1.514-2.724c0.865-0.72,1.845-1.01,2.942-0.866c1.125,0.116,2.033,0.606,2.724,1.471l13.195,16.438
		l13.195-16.438c0.691-0.866,1.6-1.355,2.724-1.471c1.097-0.144,2.091,0.145,2.986,0.866c0.865,0.692,1.354,1.6,1.47,2.724
		c0.115,1.097-0.173,2.077-0.865,2.942l-14.319,17.823L226.011,68.348z"/>
	<path fill="#F26522" d="M236.393,67.786c-2.251-2.249-3.996-4.816-5.235-7.701c-1.298-3.027-1.947-6.185-1.947-9.474
		c0-6.748,2.393-12.516,7.182-17.304c2.277-2.249,4.888-3.993,7.829-5.234c3.028-1.298,6.214-1.947,9.56-1.947
		c6.749,0,12.53,2.393,17.348,7.18c2.249,2.249,3.993,4.846,5.234,7.787c1.298,3.028,1.947,6.201,1.947,9.516
		c0,1.125-0.39,2.077-1.167,2.855c-0.808,0.808-1.774,1.211-2.899,1.211h-36.423c0.922,3.519,2.855,6.417,5.796,8.696
		c2.971,2.307,6.36,3.461,10.166,3.461c5.998,0,10.628-1.832,13.887-5.494c0.72-0.836,1.644-1.283,2.768-1.342
		c1.125-0.057,2.104,0.275,2.942,0.995c0.835,0.751,1.282,1.688,1.341,2.812c0.057,1.097-0.288,2.063-1.038,2.898
		c-4.846,5.481-11.479,8.22-19.9,8.22C247.005,74.924,241.208,72.545,236.393,67.786z M269.703,46.545
		c-0.923-3.576-2.842-6.517-5.754-8.824c-2.999-2.336-6.388-3.505-10.166-3.505c-3.806,0-7.21,1.169-10.209,3.505
		c-2.914,2.307-4.831,5.249-5.753,8.824H269.703z"/>
	<path fill="#F26522" d="M307.208,26.128c1.125,0,2.076,0.404,2.855,1.211c0.807,0.778,1.211,1.73,1.211,2.855
		c0,1.125-0.404,2.076-1.211,2.855c-0.779,0.807-1.73,1.211-2.855,1.211c-3.952,0-7.326,1.586-10.123,4.758
		c-2.798,3.202-4.196,7.052-4.196,11.551V70.9c0,1.126-0.39,2.077-1.167,2.856c-0.808,0.778-1.76,1.167-2.855,1.167
		c-1.125,0-2.092-0.39-2.899-1.167c-0.778-0.779-1.167-1.73-1.167-2.856V30.194c0-1.125,0.39-2.077,1.167-2.855
		c0.807-0.807,1.774-1.211,2.899-1.211c1.095,0,2.047,0.404,2.855,1.211c0.778,0.778,1.167,1.73,1.167,2.855v1.6
		C297.042,28.017,301.814,26.128,307.208,26.128z"/>
	<path fill="#F26522" d="M338.31,34.26c-4.382,0-8.133,1.586-11.244,4.758c-3.116,3.202-4.675,7.052-4.675,11.551
		c0,4.471,1.558,8.305,4.675,11.507c3.111,3.173,6.863,4.759,11.244,4.759c5.363,0,9.647-2.235,12.851-6.705
		c0.63-0.894,1.514-1.428,2.638-1.601c0.259-0.057,0.503-0.087,0.733-0.087c0.811,0,1.558,0.26,2.252,0.779
		c0.923,0.635,1.47,1.514,1.641,2.639c0.059,0.259,0.088,0.504,0.088,0.735c0,0.807-0.259,1.557-0.777,2.249
		c-4.816,6.72-11.293,10.079-19.426,10.079c-6.633,0-12.285-2.379-16.956-7.138c-4.701-4.759-7.052-10.497-7.052-17.217
		c0-6.748,2.351-12.502,7.052-17.261c4.671-4.787,10.322-7.18,16.956-7.18c8.133,0,14.61,3.359,19.426,10.079
		c0.518,0.72,0.777,1.485,0.777,2.292c0,0.232-0.029,0.476-0.088,0.736c-0.171,1.095-0.718,1.975-1.641,2.638
		c-0.694,0.52-1.441,0.779-2.252,0.779c-0.23,0-0.474-0.028-0.733-0.087c-1.123-0.172-2.008-0.72-2.638-1.644
		C347.957,36.482,343.673,34.26,338.31,34.26z"/>
	<path fill="#F26522" d="M369.373,67.786c-2.249-2.249-3.996-4.816-5.234-7.701c-1.299-3.027-1.949-6.185-1.949-9.474
		c0-6.748,2.393-12.516,7.183-17.304c2.276-2.249,4.887-3.993,7.83-5.234c3.028-1.298,6.213-1.947,9.559-1.947
		c6.748,0,12.531,2.393,17.348,7.18c2.249,2.249,3.993,4.846,5.234,7.787c1.297,3.028,1.947,6.201,1.947,9.516
		c0,1.125-0.388,2.077-1.167,2.855c-0.808,0.808-1.773,1.211-2.899,1.211H370.8c0.923,3.519,2.855,6.417,5.798,8.696
		c2.97,2.307,6.357,3.461,10.165,3.461c5.998,0,10.626-1.832,13.887-5.494c0.72-0.836,1.644-1.283,2.767-1.342
		c1.126-0.057,2.105,0.275,2.943,0.995c0.835,0.751,1.282,1.688,1.341,2.812c0.056,1.097-0.288,2.063-1.038,2.898
		c-4.846,5.481-11.479,8.22-19.9,8.22C379.985,74.924,374.19,72.545,369.373,67.786z M402.682,46.545
		c-0.923-3.576-2.84-6.517-5.752-8.824c-3.002-2.336-6.389-3.505-10.167-3.505c-3.808,0-7.21,1.169-10.209,3.505
		c-2.914,2.307-4.831,5.249-5.754,8.824H402.682z"/>
	<path fill="#F26522" d="M438.761,26.128c6.604,0,12.255,2.393,16.957,7.18c4.701,4.759,7.051,10.513,7.051,17.261
		c0,6.72-2.349,12.458-7.051,17.217c-4.701,4.759-10.353,7.138-16.957,7.138c-6.633,0-12.285-2.379-16.957-7.138
		c-4.701-4.759-7.055-10.497-7.055-17.217c0-6.748,2.353-12.502,7.055-17.261C426.476,28.521,432.127,26.128,438.761,26.128z
		 M438.761,66.835c4.384,0,8.133-1.586,11.247-4.759c3.114-3.202,4.672-7.036,4.672-11.507c0-4.499-1.558-8.349-4.672-11.551
		c-3.114-3.171-6.863-4.758-11.247-4.758s-8.133,1.586-11.247,4.758c-3.116,3.202-4.672,7.052-4.672,11.551
		c0,4.471,1.556,8.305,4.672,11.507C430.628,65.248,434.377,66.835,438.761,66.835z"/>
</g>
</svg>
