<?xml version="1.0" encoding="utf-8"?>
<!-- Generator: Adobe Illustrator 23.0.2, SVG Export Plug-In . SVG Version: 6.00 Build 0)  -->
<svg version="1.1"
	 id="Layer_1" inkscape:output_extension="org.inkscape.output.svg.inkscape" inkscape:version="0.48.4 r9939" sodipodi:docname="Flag_of_the_U.S._National_Security_Agency.svg" sodipodi:version="0.32" xmlns:cc="http://creativecommons.org/ns#" xmlns:dc="http://purl.org/dc/elements/1.1/" xmlns:inkscape="http://www.inkscape.org/namespaces/inkscape" xmlns:rdf="http://www.w3.org/1999/02/22-rdf-syntax-ns#" xmlns:sodipodi="http://sodipodi.sourceforge.net/DTD/sodipodi-0.dtd" xmlns:svg="http://www.w3.org/2000/svg"
	 xmlns="http://www.w3.org/2000/svg" xmlns:xlink="http://www.w3.org/1999/xlink" x="0px" y="0px" viewBox="0 0 192 192"
	 style="enable-background:new 0 0 192 192;" xml:space="preserve">
<style type="text/css">
	.st0{fill:#E0AF35;}
	.st1{fill:#FFFFFF;}
	.st2{fill:#124471;}
	.st3{fill:#FFFFFF;stroke:#000000;stroke-width:7.380000e-02;stroke-linejoin:round;}
	.st4{fill:#FFFFFF;stroke:#FFFFFF;stroke-width:0.2225;stroke-linejoin:round;}
	.st5{fill:none;stroke:#000000;stroke-width:7.380000e-02;stroke-linejoin:round;}
	.st6{fill:#B2B2B2;stroke:#000000;stroke-width:7.380000e-02;}
	.st7{fill:none;stroke:#000000;stroke-width:7.380000e-02;stroke-linecap:round;}
	.st8{fill:#124471;stroke:#000000;stroke-width:7.380000e-02;}
	.st9{fill:none;stroke:#000000;stroke-width:7.380000e-02;}
	.st10{stroke:#000000;stroke-width:7.380000e-02;}
	.st11{fill:#94693C;}
	.st12{fill:#94693C;stroke:#000000;stroke-width:7.380000e-02;}
	.st13{fill:#FFFFFF;stroke:#000000;stroke-width:7.380000e-02;stroke-linecap:square;stroke-miterlimit:2;}
	.st14{fill:#E0AF35;stroke:#E0AF35;stroke-width:7.380000e-02;stroke-linecap:square;stroke-miterlimit:2;}
	.st15{fill:none;stroke:#000000;stroke-width:7.380000e-02;stroke-linecap:square;stroke-miterlimit:2;}
	.st16{stroke:#000000;stroke-width:7.380000e-02;stroke-linecap:square;stroke-miterlimit:2;}
	.st17{fill:#B11E39;}
	.st18{fill:#7BAFD4;}
	.st19{stroke:#000000;stroke-width:7.380000e-02;stroke-linejoin:round;}
	.st20{fill:#E0AF35;stroke:#000000;stroke-width:7.380000e-02;}
</style>
<sodipodi:namedview  bordercolor="#666666" borderopacity="1.0" fit-margin-bottom="0" fit-margin-left="0" fit-margin-right="0" fit-margin-top="0" gridtolerance="10.0" guidetolerance="10.0" height="720px" id="base" inkscape:current-layer="g3" inkscape:cx="-36.276932" inkscape:cy="196.95099" inkscape:pageopacity="0.0" inkscape:pageshadow="2" inkscape:showpageshadow="false" inkscape:window-height="1096" inkscape:window-maximized="1" inkscape:window-width="1920" inkscape:window-x="-8" inkscape:window-y="-8" inkscape:zoom="0.95904189" objecttolerance="10.0" pagecolor="#ffffff" showgrid="false" width="720px">
	</sodipodi:namedview>
<g id="g3" transform="matrix(0.99999544,0,0,1,-0.33400284,-0.33499999)">
	<path id="path5" inkscape:connector-curvature="0" class="st0" d="M96.3,192.3c53,0,96-43,96-96c0-53-43-96-96-96
		c-53,0-96,43-96,96C0.3,149.4,43.3,192.3,96.3,192.3z"/>
	<path id="path7" inkscape:connector-curvature="0" class="st1" d="M96.3,189.5c51.5,0,93.2-41.7,93.2-93.2
		c0-51.5-41.7-93.2-93.2-93.2C44.9,3.1,3.2,44.8,3.2,96.3C3.2,147.7,44.9,189.5,96.3,189.5z"/>
	<path id="path9" inkscape:connector-curvature="0" class="st0" d="M96.3,170.1c40.7,0,73.8-33,73.8-73.8c0-40.7-33-73.8-73.8-73.8
		c-40.7,0-73.8,33-73.8,73.8C22.6,137,55.6,170.1,96.3,170.1L96.3,170.1z"/>
	<path id="path11" inkscape:connector-curvature="0" class="st2" d="M96.3,168.2c39.7,0,72-32.2,72-72c0-39.7-32.2-72-72-72
		c-39.7,0-72,32.2-72,72C24.4,136,56.6,168.2,96.3,168.2L96.3,168.2z"/>
	<polyline id="polyline13" class="st3" points="101.4,106.4 94.6,106.4 101.4,105.7 	"/>
	<path id="path15" inkscape:connector-curvature="0" class="st4" d="M91.5,144.8l3.1,1.7l3.2-1.7L94.6,110L91.5,144.8L91.5,144.8z
		 M94.6,109.3l11.1,33.7l2.5,1l1.4-1.9L94.6,109.3z M105.7,143.1l-1.6,2.1l-2.4-1l-7.1-34.7L105.7,143.1z M101.7,144.3l-1.7,1.3
		l-2.2-0.9l-3.2-34.9L101.7,144.3L101.7,144.3z M94.6,109.3L83.5,143l-2.5,1l-1.4-1.9L94.6,109.3z M83.5,143.1l1.6,2.1l2.4-1
		l7.1-34.7L83.5,143.1L83.5,143.1z M87.4,144.3l1.7,1.3l2.2-0.9l3.2-34.9L87.4,144.3L87.4,144.3z"/>
	<polygon id="polygon17" class="st3" points="97.8,144.8 94.6,110 91.5,144.8 91.5,144.8 94.6,146.4 	"/>
	<path id="path19" inkscape:connector-curvature="0" class="st5" d="M94.6,145v-34.9 M101.3,106.1l-6.8,0.3"/>
	<polyline id="polyline21" class="st3" points="101.3,107.1 94.6,106.5 101.2,106.4 	"/>
	<line id="line23" class="st5" x1="101.1" y1="106.8" x2="94.6" y2="106.5"/>
	<polyline id="polyline25" class="st3" points="101.3,107.9 94.6,106.7 101.3,107.1 	"/>
	<line id="line27" class="st5" x1="101.3" y1="107.5" x2="94.6" y2="106.7"/>
	<polyline id="polyline29" class="st3" points="101.2,108.6 94.6,106.9 101.3,107.9 	"/>
	<line id="line31" class="st5" x1="101.4" y1="108.3" x2="94.6" y2="106.9"/>
	<polyline id="polyline33" class="st3" points="101.1,109.4 94.6,107.1 101.3,108.6 	"/>
	<line id="line35" class="st5" x1="101.5" y1="109.2" x2="94.6" y2="107.1"/>
	<polyline id="polyline37" class="st3" points="101.4,110.4 94.6,107.3 101.4,109.6 	"/>
	<line id="line39" class="st5" x1="101.4" y1="109.9" x2="94.6" y2="107.3"/>
	<polyline id="polyline41" class="st3" points="101.7,111.7 94.6,107.5 101.4,110.4 	"/>
	<line id="line43" class="st5" x1="101.8" y1="111.2" x2="94.6" y2="107.5"/>
	<polyline id="polyline45" class="st3" points="102,113.3 94.6,107.7 101.7,111.7 	"/>
	<line id="line47" class="st5" x1="102" y1="112.6" x2="94.6" y2="107.7"/>
	<polyline id="polyline49" class="st3" points="102.2,115.1 94.6,108 102.1,113.3 	"/>
	<line id="line51" class="st5" x1="102" y1="114.1" x2="94.6" y2="108"/>
	<polyline id="polyline53" class="st3" points="102.4,117.6 94.6,108.3 102.2,115.1 	"/>
	<line id="line55" class="st5" x1="102.3" y1="116.3" x2="94.6" y2="108.3"/>
	<polyline id="polyline57" class="st3" points="102.6,121 94.6,108.5 102.5,117.6 	"/>
	<line id="line59" class="st5" x1="102.1" y1="118.4" x2="94.6" y2="108.5"/>
	<polyline id="polyline61" class="st3" points="103.8,129.6 94.6,109 102.7,121 	"/>
	<line id="line63" class="st5" x1="103" y1="124.1" x2="94.6" y2="109"/>
	<polygon id="polygon65" class="st3" points="108.1,144 109.5,142 94.6,109.3 94.6,109.3 105.6,143 	"/>
	<line id="line67" class="st5" x1="94.6" y1="109.3" x2="107.7" y2="142.9"/>
	<polygon id="polygon69" class="st3" points="101.7,144.2 94.6,109.5 105.7,143.1 105.7,143.1 104,145.2 	"/>
	<line id="line71" class="st5" x1="103.7" y1="144.2" x2="94.6" y2="109.5"/>
	<polygon id="polygon73" class="st3" points="97.8,144.8 94.6,109.9 101.7,144.3 101.7,144.3 100,145.6 	"/>
	<line id="line75" class="st5" x1="99.8" y1="144.9" x2="94.6" y2="109.9"/>
	<polyline id="polyline77" class="st3" points="87.7,106.4 94.6,106.4 87.7,105.7 	"/>
	<line id="line79" class="st5" x1="87.8" y1="106.1" x2="94.6" y2="106.4"/>
	<polyline id="polyline81" class="st3" points="87.8,107.1 94.6,106.5 88,106.4 	"/>
	<line id="line83" class="st5" x1="88" y1="106.8" x2="94.6" y2="106.5"/>
	<polyline id="polyline85" class="st3" points="87.8,107.9 94.6,106.7 87.8,107.1 	"/>
	<line id="line87" class="st5" x1="87.9" y1="107.5" x2="94.6" y2="106.7"/>
	<polyline id="polyline89" class="st3" points="88,108.6 94.6,106.9 87.8,107.9 	"/>
	<line id="line91" class="st5" x1="87.8" y1="108.3" x2="94.6" y2="106.9"/>
	<polyline id="polyline93" class="st3" points="88,109.4 94.6,107.1 87.9,108.6 	"/>
	<line id="line95" class="st5" x1="87.6" y1="109.2" x2="94.6" y2="107.1"/>
	<polyline id="polyline97" class="st3" points="87.7,110.4 94.6,107.3 87.7,109.6 	"/>
	<line id="line99" class="st5" x1="87.7" y1="109.9" x2="94.6" y2="107.3"/>
	<polyline id="polyline101" class="st3" points="87.4,111.7 94.6,107.5 87.7,110.4 	"/>
	<line id="line103" class="st5" x1="87.4" y1="111.2" x2="94.6" y2="107.5"/>
	<polyline id="polyline105" class="st3" points="87.1,113.3 94.6,107.7 87.5,111.7 	"/>
	<line id="line107" class="st5" x1="87.1" y1="112.6" x2="94.6" y2="107.7"/>
	<polyline id="polyline109" class="st3" points="86.9,115.1 94.6,108 87,113.3 	"/>
	<line id="line111" class="st5" x1="87.1" y1="114.1" x2="94.6" y2="108"/>
	<polyline id="polyline113" class="st3" points="86.7,117.6 94.6,108.3 86.9,115.1 	"/>
	<line id="line115" class="st5" x1="86.8" y1="116.3" x2="94.6" y2="108.3"/>
	<polyline id="polyline117" class="st3" points="86.5,121 94.6,108.5 86.7,117.6 	"/>
	<line id="line119" class="st5" x1="87" y1="118.4" x2="94.6" y2="108.5"/>
	<polyline id="polyline121" class="st3" points="85.3,129.6 94.6,109 86.4,121 	"/>
	<line id="line123" class="st5" x1="86.2" y1="124.1" x2="94.6" y2="109"/>
	<polygon id="polygon125" class="st3" points="81.1,144 79.6,142 94.6,109.3 94.6,109.3 83.5,143 	"/>
	<line id="line127" class="st5" x1="94.6" y1="109.3" x2="81.4" y2="142.9"/>
	<polygon id="polygon129" class="st3" points="87.4,144.2 94.6,109.5 83.5,143.1 83.5,143.1 85.1,145.2 	"/>
	<line id="line131" class="st5" x1="85.4" y1="144.2" x2="94.6" y2="109.5"/>
	<polygon id="polygon133" class="st3" points="91.4,144.8 94.6,109.9 87.4,144.3 87.4,144.3 89.1,145.6 	"/>
	<line id="line135" class="st5" x1="89.3" y1="144.9" x2="94.6" y2="109.9"/>
	<path id="path137" inkscape:connector-curvature="0" class="st6" d="M148.9,138.4c0,0-1.7-0.2-2.6-1.2c-0.7-0.7-1.8-3.2-1.8-3.2
		c-1.5-3.4-3.6-6.5-7.2-6.5c-3.6,0-7.7,4.2-9.2,7.5c0,0-0.3,0.5-0.6,0.7c-0.3,0.2-0.9,0.2-0.9,0.2H52.7c-1.4,0-2.6,1.1-2.7,2.6v0
		c0.1,1.4,1.3,2.6,2.7,2.6h73.9c0,0,0.6-0.1,0.9,0.2c0.3,0.2,0.6,0.7,0.6,0.7c1.5,3.4,5.6,7.5,9.2,7.5c3.6,0,5.7-3.2,7.2-6.5
		c0,0,1.1-2.5,1.8-3.2C147.2,138.7,148.9,138.4,148.9,138.4L148.9,138.4z"/>
	<path id="path139" inkscape:connector-curvature="0" class="st7" d="M51.4,136.6c0.5-0.4,1.1-0.4,1.4-0.4h74.3c0,0,0.7-0.1,0.9-0.2
		c0.3-0.3,0.4-0.5,0.4-0.5c1.3-3,5.6-7.4,8.9-7.4c3.3,0,5.3,3,6.6,6c0,0,0.4,1,0.9,2 M128,140.2l0.7,1c1.3,3,5.3,7.7,8.5,7.7
		c3.3,0,5.3-3,6.6-6c0,0,0.8-2.1,1.6-3.2c0.7-1,1.6-1.2,1.6-1.2c-0.1,0,0.6,0,0.6,0c-0.9,0.3-1.7,0.8-1.7,0.8"/>
	<path id="path141" inkscape:connector-curvature="0" d="M146.3,138.4c0,0-0.7,0.3-1,0.9c-0.9,2.1-2.4,2.5-3.2,3.5
		c-0.8,1-1.3,2-2.2,2.8c-0.9,0.8-2.6,0.7-2.6,0.7s1.6-0.7,2.1-1c0.5-0.3,1.3-1.2,1.3-1.8c0.1-0.6,0-1.7,0-1.7s2.7-0.2,3.2-0.9
		c0.5-0.7,1-2.5,1-2.5L146.3,138.4 M129.6,138.4h-1.1c0,0,1.4-2.2,2.1-3c0.7-0.8,1.7-2.2,2.1-2.7c0.4-0.6,0.9-1.7,0.9-1.7l0.8,0.9
		l-0.8,3.2l-2.7,0.8L129.6,138.4"/>
	<path id="path143" inkscape:connector-curvature="0" class="st6" d="M133.3,134.8c0-0.2,0-0.1,0-0.3c-0.1-2,1.4-3.7,3.5-3.8
		c2-0.1,3.7,1.5,3.8,3.5c0,0.2,0,0.4,0,0.6c0.2,0,0.4-0.1,0.6-0.1c2-0.1,3.7,1.4,3.8,3.5c0.1,2-1.4,3.7-3.5,3.8c-0.2,0-0.5,0-0.7,0
		c0,0.2,0.1,0.5,0.1,0.7c0,2-1.6,3.6-3.7,3.6c-2,0-3.7-1.6-3.7-3.6c0-0.2,0-0.4,0-0.6c-0.2,0-0.4,0-0.6,0c-2,0-3.7-1.6-3.7-3.6
		c0-2,1.6-3.7,3.7-3.7C133.3,134.8,133.1,134.8,133.3,134.8L133.3,134.8z"/>
	<path id="path145" inkscape:connector-curvature="0" class="st8" d="M139.9,141c0.5,0.3,1,0.4,1.6,0.4c1.7-0.1,3-1.5,2.9-3.2
		c-0.1-1.7-1.5-3-3.2-2.9c-0.6,0-1.1,0.2-1.6,0.5c0.3-0.5,0.4-1,0.4-1.6c-0.1-1.7-1.5-3-3.2-2.9c-1.7,0.1-3,1.5-2.9,3.2
		c0,0.4,0.1,0.7,0.2,1c-0.3-0.1-0.7-0.2-1.1-0.2c-1.7,0-3.1,1.4-3.1,3.1c0,1.7,1.4,3.1,3.1,3.1c0.6,0,1.2-0.2,1.6-0.5
		c-0.3,0.5-0.5,1-0.5,1.6c0,1.7,1.4,3.1,3.1,3.1c1.7,0,3.1-1.4,3.1-3.1C140.3,142.1,140.2,141.5,139.9,141L139.9,141z"/>
	<path id="path147" inkscape:connector-curvature="0" class="st7" d="M51.4,140.3c0.5,0.4,1.1,0.4,1.4,0.4h74.3c0,0,0.7,0.1,0.9,0.2
		c0.3,0.3,0.4,0.5,0.4,0.5"/>
	<path id="path149" inkscape:connector-curvature="0" d="M129,141.8c0,0-0.6-1.3-1.2-1.6c-0.6-0.3-1.8-0.2-1.8-0.2H52.1
		c-0.5,0-1.5-0.6-1.5-1.4c0,0,0.6,0.9,1.5,1H126c0,0,1.5-0.1,2,0.2C128.4,140.2,129,141.8,129,141.8"/>
	<path id="path151" inkscape:connector-curvature="0" class="st6" d="M124.5,142.6c0.6,0,1-0.5,1-1V134c0-0.5-0.4-1-1-1
		c-0.6,0-1,0.4-1,1v7.6C123.5,142.1,123.9,142.6,124.5,142.6z"/>
	<path id="path153" inkscape:connector-curvature="0" class="st9" d="M123.5,141.3c0,0.5,0.4,1,1,1c0.6,0,1-0.5,1-1 M123.5,134.4
		c0-0.6,0.4-1,1-1c0.6,0,1,0.4,1,1"/>
	<path id="path155" inkscape:connector-curvature="0" class="st10" d="M125.5,140.5c0,0.6-0.4,1-1,1c-0.6,0-1-0.4-1-1v0.2
		c0,0.5,0.4,1,1,1c0.6,0,1-0.4,1-1V140.5z"/>
	<path id="path157" inkscape:connector-curvature="0" class="st11" d="M60.3,135.7c0.1-0.2,0.2-0.4,0.3-0.6"/>
	<path id="path159" inkscape:connector-curvature="0" class="st12" d="M50.3,132.6c1.7,0.5,3.5-0.7,4.9-1.7l0.2,0.3
		c-0.6,2.4-0.4,5.2-1.4,7.5l1.2,0.1l0.1-0.4c0.8-0.5,1.8-1.1,2.7-1.9c0,0,2.7-1.2,2.5-1.2l1-2.1c2.5-1.9,3.9-4.5,5.2-7.1
		c2.6-6.6,4.1-13.8,4.5-21.3c0,0,0.7-0.3,0.8-0.1c0.2,0.1,1.9-0.2,2.3-0.8l1.4,0.3l1.8-0.1c1.3-0.3,1.8-1.1,2-2.1l1.1-0.1l2.4-2.1
		c-0.6-0.8-1-1.3-1.6-2.2c0,0-3.7-4.7-4.8-13.7c-0.6-5,0.6-13.6,0.6-13.6h1.6c-1.9-0.9-4.2-2-5.5-3.9c-0.9-4.9,3.1-9.3,1.1-14.1
		c-3.6-5.9-11.5-6.3-17.3-4.1c-9.7,5.7-10.2,17.2-11.9,27.2l-1.6,22.7c-0.4,5.5,0.3,11.1-0.2,16.6c1.3-0.4,2.7-1.2,3.6-2.4
		c0.8,3.7,0.4,7.9,0,11.7c1.9,0,3.4-1.4,4.4-2.9l0.2,0.2c-0.1,3.7-0.6,7.3-1.5,10.7L50.3,132.6L50.3,132.6z M148,110.9
		c-4.1-12.7-2.1-27.2-4.7-40.5l0.2-1c-0.8-4.9-3.2-9.2-4.8-13.8c-1.9-3.9-3.7-8.3-8-10.7c-2.8-2.4-7.2-1.2-10.5-0.6
		c-3.2,1.4-7.9,3.8-7.8,8.1c-0.1,3.5,1.8,6.2,2.1,9.5c-0.1,4-4.9,6.9-7.7,8.5h5c0,0,1,4.3,0.8,9.9c-0.2,5.3-1,11.2-4.6,17
		c-0.1,0.2-1.7,2.5-4.3,5.4l5.3,1.8l0.4-1.4c0.1,0.2,0.3,0.2,0.5,0.3c0.5,0.3,1.3,0.1,1.9,0.2l1.1-0.1c0.7-0.2,1.3-0.8,1.5-1.5
		l0.7,0.2l0.3,0.2c0.6,0.1,1.6,0.4,2-0.2l0.8,1.4l0.5,2.4c2.8,7.4,3.1,16.3,10.4,21.3l0.6,0.3l1.3,0.5l3.4,5c1,1.2,2.2,1.9,3.4,2.7
		c0.5,0.1,1.2,1.5,1.6,1.1l0.5-1.4l-1-5.1c0.7,0.3,1.6,0.3,2.3,0.5l1.1-0.9c-1-3.1-1.5-6.5-2-9.8v-0.7c2.7,1.7,3.7,0.4,3.7,0.4
		c-0.8-3.3-1.4-7.5-1.6-11.4l0.5-0.1c0.3,0.7,0.7,1.4,1.3,2.1c0.6,0.6,1.3,1,2.1,0.8L148,110.9L148,110.9z"/>
	<path id="path161" inkscape:connector-curvature="0" class="st13" d="M103.6,70.4c-0.1-0.9-0.6-2.5-1-3.6c0.4-1.6-1.1-3-0.5-4.4
		c-1-2.7-1.2-5.3-1.3-8.2c-0.4-1.8-0.5-3.7-1.2-5.3c-0.8-1.9-3.4-2.6-4.9-2.9c-1.5-0.3-3.9-0.4-3.9-0.4c-0.7-0.1-1.9,0.4-1.8,0.9
		c0.9,1.3,0.8,2.6,0.5,3.7l-2.1,0.5c1.8,0.4,3.5,1.8,3.3,2.7c-0.3,0.8-1.6,0.9-1.8,0.8c0,0-2.4-2.2-2.8-2.3
		c-0.3-0.1-1.2-0.7-1.1-0.6c0.1,0.1,0.9,1.1,1.5,1.7c0.6,0.6,0.9,1.4,0.9,1.4c0.6,0.6,0.8,1,0.7,2.2l-0.8,2.1l-0.5,2
		c0,1.1-1.2,2-1.1,3.2c-0.4,0.8-1,1.8-0.8,2.7l-1.5,3.7H103.6L103.6,70.4L103.6,70.4z"/>
	<path id="path163" inkscape:connector-curvature="0" class="st14" d="M89,46.5c0.8,1.3,0.8,2.6,0.5,3.7l-2.1,0.5
		c1.8,0.4,3.5,1.8,3.3,2.7c-0.3,0.8-1.6,0.9-1.8,0.8c0,0-2.4-2.2-2.8-2.3c-0.3-0.1-1.2-0.7-1.1-0.6c0.1,0.1,0.9,1.1,1.5,1.7
		c0.6,0.6,0.9,1.4,0.9,1.4c-3.6-2-5-2.3-5-2.3L82,52.9c-0.2-2.1-0.8-4.1,0.4-5.9C83.7,45.7,86.8,46.2,89,46.5L89,46.5z"/>
	<path id="path165" inkscape:connector-curvature="0" class="st15" d="M87.6,54.5c-3.7-1.8-5-2.3-5-2.3L82,52.9
		c-0.2-2.1-0.8-4.1,0.4-5.9c1.2-1.3,4.4-0.8,6.5-0.5"/>
	<path id="path167" inkscape:connector-curvature="0" d="M87.6,59c0.8-1,1.3-1.9,1.7-3.4c-0.2-0.1-0.2-0.3-0.4-0.4
		c-0.3,0.1-0.4,1.2-0.5,1.8L87.6,59 M86,51.9c0,0,2,1.5,3,2.4c0.8,0.2,1.7-0.2,2-1c0-0.5-0.7-1.3-1.5-1.8c-0.3-0.1-0.8-0.4-1.1-0.6
		c0.7,0.6,2.3,1.4,1.9,2.7c-0.7,0.6-1,0.4-1.4,0.1L86,51.9 M87.1,51.8l2.5,1.1c0,0,0.5,0,0-0.2c-2-0.9-3.7-3.2-6-2.2
		c-0.8,0.4-1.1,1.6-1.5,2.4l0.5-0.6c0,0,0.6-1,1-1.1c1.6-0.5,2.6,0.1,2.6,0.1L87.1,51.8 M88.8,50.1c-0.1,0.1,0.2,0.5,0.1,0.5
		c-0.4,0.2-1.5,0.1-2,0C87.2,50.5,88.3,49.7,88.8,50.1 M84.1,46.9c-1.3,0.9-1.4,1.8-1.9,3.2C82.1,48.5,82.6,46.7,84.1,46.9 M86.9,54
		c-1.8-1.4-2.1-1.4-4.1-2.2c0,0,0.1-0.2,0.2-0.3c2.1,0.8,2.9,1.6,2.9,1.6L86.9,54 M89.5,49.3l0.1,0.4c0.9-1,0.5-2.1-0.7-3.3l0.4,1.1
		C89.8,48.8,89.5,49,89.5,49.3"/>
	<path id="path169" inkscape:connector-curvature="0" class="st16" d="M89.8,50.2c0.9-0.1,1,1.5,2.1,1.4c0.9,0,1.8-0.6,2.2-1.5
		c0.8,0.1,1.4,0.2,2-0.2l0.1-0.1c-0.7,0.2-1.4,0.1-2.1-0.1c-0.9-0.3-1.8-1-2.6-1c-0.8-0.1-1.1,0.5-1.5,1.3L89.8,50.2L89.8,50.2z"/>
	<path id="path171" inkscape:connector-curvature="0" class="st1" d="M91.3,49.5c0,0.5-0.2,1,0.5,1.2c0.8,0.2,0.9-0.3,1.1-0.9
		c0.1-0.1,0.7,0.1,0.7,0.2c-0.1,0.4-0.4,1-0.9,1.2c-0.4,0.1-0.7,0.1-1,0c-0.5-0.2-1-0.9-1-1.4C90.5,49.6,91.1,49.4,91.3,49.5"/>
	<path id="path173" inkscape:connector-curvature="0" d="M84.5,70.4c0.5-0.1,1-0.6,1.5-0.8c0.2,0.3-0.9,0.5-0.7,0.8H84.5 M88.8,70.4
		c0.5-0.2,1.2-1.1,1.9-1.1c0.4,0.3-0.6,0.7-0.4,1.1H88.8 M95.2,70.4c0.4-0.2,1-1.1,1.6-1c0.5,0.2,0,0.6-0.2,1H95.2 M101.4,70.4
		l-0.4-0.6c0-0.2-0.5-0.6-0.3-0.7c0.5,0.3,0.5,0.7,1.4,1.3H101.4 M91.4,62.3c-0.4,0.5-1.1,0.7-1.7,0.8c-0.4,0.1-0.7-0.1-1-0.3v-0.2
		c0.8,0.2,1.3,0.4,2,0C91,62.4,91.1,62.2,91.4,62.3 M95.5,61.9c-1,1.7-1.6,1.4-2.7,0.4c-0.2-0.1,1.2,0.4,1.5,0.3L95.5,61.9 M98,67.9
		c-0.7,0.1-1.2,1.1-1.9,0.4c-0.4-0.4-0.8-0.8-0.7-1.4c0.7,0.4,1.3,0.6,2,0.2c0.7-1,1.8-1.4,1.8-2.7C99.6,65.7,98.7,67,98,67.9
		 M92.3,68.5c-0.5-0.1-1.2,0.3-1.7,0c-0.6-0.4-0.5-1.1-0.7-1.7c0.7,0.8,1.3,1,2.1,0.8c0.7-0.8,1.9-1.6,2.3-2.7
		C93.9,66.2,93.2,67.4,92.3,68.5 M87.2,68.5c-0.4-0.4-0.8,0.3-1.2-0.1c-0.2-0.7-0.4-1.6-0.2-2.4c0.3,0.5,0.1,1.4,0.9,1.6
		c1.2,0.1,1.3-1.3,2.2-1.7C88.8,67,87.7,67.6,87.2,68.5 M46.9,72.3c2.3-4.6,3.8-9.5,4.8-14.6C50.5,62.8,49.7,68,46.9,72.3"/>
	<path id="path175" inkscape:connector-curvature="0" class="st11" d="M75.9,80.3c-0.4-0.4-0.2-1.2,0.2-1.6L75.9,80.3"/>
	<path id="path177" inkscape:connector-curvature="0" d="M46.2,96.2c-0.4,4.9-0.7,9.7-0.9,14.7c1.1-4.6,1.5-9.7,1.7-14.7L46.2,96.2
		 M51.1,96.2c0,0.6,0,1.2,0,1.7c-0.4,1.4-1.5,2.4-2,3.7c-1.9,4-1.1,9.2-5.2,12.2c0.4,0.6,0.8-0.1,1.2-0.2c3-1.7,2.5-5.4,4-8
		c0.2,4,0,8.3,0.5,12c1.2-4.4,0.4-9.6,0.4-14.2c0.4-1.6,1.3-3,2.3-4.4c0-0.9,0.1-1.9,0.1-2.8L51.1,96.2 M56.4,96.2
		c-0.2,3.2-0.4,6.4-0.8,9.5c-1.6,1.9-2.1,4.3-2.4,6.6c-1.6,3.7-1.2,8.6-5.5,10.9l-0.1,0.3c1.9-0.1,3.4-2.3,4.3-3.7
		c0.8-2.3,1.6-4.6,2.5-6.9c0.2,4.6-0.4,9.4-0.8,13.8c1.9-5.1,1.8-11.2,1.6-16.8c0.2-1.3,0.7-2.5,1.8-3.3c0,0,0.2-4.8,0.4-10.3
		L56.4,96.2 M61.8,96.2c-0.2,5.7-0.6,11.4-1.1,16.9c-2.8,4.4-4,9.5-5.1,14.6c-0.4,2-2.5,3.5-4.3,4.3h-1.3l0.2,0.5
		c2,0.2,3.6-0.9,5.1-2.1c-0.3-1.7,1.3-2.7,1.6-4.1c0.7-2,0.9-4.3,2-6.2c-0.4,4.1-0.8,8.4-1.4,12.2c1.2-2.1,1.2-4.7,1.7-7.1
		c0.4-3.2,0.9-6.3,1.2-9.5l1.5-1.5c0,0,0.4-10,0.7-18L61.8,96.2 M66.1,96.2c-0.3,7.9-0.8,16-1.3,23.9c-3.6,3.8-2.5,9.5-5.1,13.7
		c-0.2,1.1-0.9,2-1.8,2.8l2.6-1.4c1.6-3.8,2.8-8.1,4-12.2l1.8-2.1c0.4-8.5,0.7-16.5,0.8-24.5L66.1,96.2 M71.2,96.2
		c-0.2,2.9-0.5,5.9-0.1,8.7l0.4,0c0.4-2.6,0.5-5.7,0.6-8.6L71.2,96.2 M73.4,96.2c-0.2,2.2-0.4,4.4-0.7,6.5c0,0,0.3,0.2,0.4,0
		c0.6-2,0.7-4.4,0.7-6.5H73.4 M75.5,96.2c-0.1,2.8-0.5,6.2-1.3,7.8l1.4,0.3c0.5-2.6,0.6-5.3,0.7-8.1L75.5,96.2 M77.9,96.2
		c-0.1,2.1-0.4,4.2-0.5,6.2c0.7-1.7,0.9-4,1-6.2H77.9 M80.2,96.2C80.3,96.3,80.3,96.3,80.2,96.2c-0.3,1.3-0.5,4.6-0.8,5.9l1.7,1.6
		c0-1.1,4.5-0.6,4.5-0.6c-2.3-2.3-4.1-4.7-5.4-6.9L80.2,96.2 M80.3,96.2c-3.1-5.2-3.8-10.1-4-14.2c-0.1-3.2,0.1-5.8,0.1-5.8l-1,2.5
		c-1.2,0.7-2.1,0.1-3.2-0.3c-0.6-0.8-1.5-1.6-1-2.8c0.4-0.6,0.8-0.9,1.2-1.3c-1,0.4-2.4,1.8-3.6,0.6c-0.5-1.3-1.7-2.4-1.1-4
		c0.4-0.5,0.5-1.1,1.1-1.5c-0.6-0.1-1.3,0.4-1.8-0.2c-0.8-1.2-0.7-2.6-0.5-4.1c0.5-0.5,0.8-1.1,1.4-1.4c-0.7-0.3-1.7-1-1.6-2
		c0.1-2.2,0.8-4.3,2.4-5.9l-0.1-0.1c-1.9,1.7-4.2,3-6.7,2.1c-0.8-0.4-0.9-1.3-1.2-2c-1.2,2-3.6,2.5-5.9,2.7c-1.2-0.1-2-1.5-3.1-1.8
		c0.5,0.9,1.5,2,2.5,2.7c-0.4,4.7-2.2,8.9-4.3,13c-1,1.2-2.8,1.1-4.3,1.4c0.5,0.8,1.8,0.6,2.3,1.4c-0.5,7-1.2,14-1.8,20.9h0.9
		c0.2-3.5,0.3-7,0.8-10.4l0.5-10.6l2.1-1.2l1.9,2c-0.7,6.7-1.1,13.2-1.3,20.1h1.2c0.2-6.4,0.3-12.7,0.7-19.3c0.5-0.4,1.5-0.1,2-0.2
		c0.5,1.3,1.1,2.7,2.2,3.6c-0.4,5.1-0.6,10.5-0.9,15.9h0.9c0.3-7.1,0.6-15.4,0.6-15.4c0.1-0.3,0.4-0.2,0.6-0.2
		c0.7,1.8,1,4.4,3.3,4.8c0.1,3.6,0.1,7.2,0,10.8h0.9c0.2-5.4,0.4-10,0.4-10c0.6,1,1.4,2.7,2.9,2.6h0.3c0,2.4-0.1,4.9-0.2,7.4h1
		c0-2.1,0-4.2,0-6.3c1.2,0.6,2.2,2.1,3.9,1.7l0.2,0.3c0.1,1.4,0.1,2.9,0,4.3h0.9c0-1.4,0.1-2.8,0.2-4.1c0.3,0.1,0.9,0.5,1.2,1
		c0,1,0,2.1-0.1,3.1h0.4c0-1,0.1-2,0.1-2.8l1.6,0.3c0,0.7,0,1.6,0,2.5h0.8c0-0.7,0-1.4,0.1-2.1L78,93c0.1,1.1,0,2.2,0,3.3h0.5
		c0.1-1.2,0.1-2.3,0.2-3.4c0,0,1.3,2.9,1.6,3.4L80.3,96.2"/>
	<path id="path179" inkscape:connector-curvature="0" class="st12" d="M75.6,133.2c-0.6-0.1-1.2-0.2-1.8-0.4
		c2.4-9.3,2.8-19.5,5.5-28.6c0.9-0.8,0.7-2.5,4.5-3c0.2,0.6-2.4,0.5-2.9,1.8c2.6-1.7,4.1-1.1,5.6,0.1c4.7,3.6,1.7,10.5,1.8,15.4
		l-0.4,0.8l-0.3,10.4c-0.6,1.1-0.2,2.5-0.3,3.8c-1.2-0.4-2.5-1.7-3.9-0.8H83L75.6,133.2L75.6,133.2z M80.7,96.8l-0.8,5.5
		c0,0,1.8-1.1,2.3-1.2c0.5-0.2,1.5-0.1,1.5-0.1s-1.2-1.4-1.6-2C81.7,98.4,80.7,96.8,80.7,96.8L80.7,96.8z"/>
	<path id="path181" inkscape:connector-curvature="0" d="M64.7,128.8c-0.7,0.8-1.2,1.9-2.1,2.4c0.5-1.9,2.3-3.8,3.1-5.9
		c2.8-6.4,4.1-13.5,4.7-20.9C70.7,113.3,68.7,121.6,64.7,128.8 M72.5,63.6c-0.3,1.7,0,3.4,1,4.7c-2.8-2.4-1.5-5.9-1.1-8.9
		c0.5-2.1,2-4.4,1-6.7C75.7,56.2,72.6,59.8,72.5,63.6"/>
	<path id="path183" inkscape:connector-curvature="0" class="st11" d="M61.9,59.6c-0.9,5.4-3.6,10.1-6.9,14.5
		c-0.6,0.6-1.6,0.6-2.4,0.3c-0.6-0.3-1.1-0.9-1.5-1.4c1.6-4.2,3.2-8.4,3.9-13c2.1,0.2,3.7-1.2,5.3-2.3C60.6,58.5,61.3,59,61.9,59.6
		 M66.5,64.3c-0.8,1.5-1.6,3.2-1.1,5c-2.1,3.1-3.7,6.7-6.9,9.1c-1.1,0.5-2-0.6-2.4-1.4c-1.4-3,2.3-4.8,3-7.5
		c1.6-3.2,2.9-6.3,3.6-9.8c1.5,0.1,2.7-0.5,3.7-1.4C66,60.2,64.5,62.9,66.5,64.3"/>
	<path id="path185" inkscape:connector-curvature="0" d="M57.6,65.7c-0.4-0.4,0-1,0.1-1.5c0.6-1.2,1-2.6,1.3-4l0.1,0.3L57.6,65.7
		 M59.6,75.2c-0.8,0.6-1.3,1.8-2.5,1.4c-0.2-0.9,1-0.7,1.4-1.2c2.4-3.7,4.3-7.6,6-11.7C63.2,67.7,61.4,71.4,59.6,75.2 M67.8,67.3
		l1.7-1.1C69.4,67,68.5,67.2,67.8,67.3 M55.9,70.4c-0.8,0.9-0.9,2.7-2.4,3.2c1.6-2,2.5-4.7,3.4-7.3C57.3,67.9,56,68.8,55.9,70.4"/>
	<path id="path187" inkscape:connector-curvature="0" class="st11" d="M67.3,75.1c0.4,0.7,1.7,0.7,1.3,1.6c-1.8,2.5-3.1,5.5-5.7,7.5
		c-1.3,0.5-2.3-1-3.1-1.8c-0.4-0.7-0.6-1.5-0.7-2.3c3.1-2.7,4.5-6.3,6.6-9.6C67.8,71.2,66,73.7,67.3,75.1"/>
	<path id="path189" inkscape:connector-curvature="0" d="M70,73.5l1.7-2.2C71.3,72.1,70.9,72.9,70,73.5 M74.3,77l0.7-1.5l-0.1,0.9
		L74.3,77"/>
	<path id="path191" inkscape:connector-curvature="0" class="st11" d="M72.2,79.5h0.3v0.5l-4.8,7.5c-0.4,0.4-1.2,0.5-1.8,0.3
		c-0.9-0.7-2.1-1.6-2.1-2.8c2.8-2.1,3.8-5.4,5.5-8.1C69.8,78,70.6,79.7,72.2,79.5"/>
	<path id="path193" inkscape:connector-curvature="0" d="M61.9,82.5h-0.9c-0.2-0.7,0.8-0.4,1.2-0.8c1.2-1.3,2.2-2.8,3.1-4.3
		C64.4,79.2,63.2,81.3,61.9,82.5"/>
	<path id="path195" inkscape:connector-curvature="0" class="st11" d="M74.9,80.5c-0.3,1.5,1.9,2.1,1.2,3.7
		c-1.6,1.9-2.2,4.4-3.9,6.4c-1.2,1-2.3-0.4-3.3-1c-0.3-0.4-0.4-0.8-0.5-1.1c2.4-2.4,3.5-5.2,4.9-8C73.7,81,74.3,80.5,74.9,80.5"/>
	<path id="path197" inkscape:connector-curvature="0" d="M66.8,86.4c-0.4,0.3-0.8,0.6-1.3,0.5c1.6-1.3,2.8-3.4,3.9-5.2L66.8,86.4"/>
	<path id="path199" inkscape:connector-curvature="0" class="st11" d="M77.3,88.6c-0.1,0.7-0.9,1.6-1.6,2c-0.4-0.1-0.7,0-0.9,0.3
		c-0.1,0.2,0.1,0.3,0.2,0.4c0.7,0,1.3-0.3,1.9-0.7c0.2-0.3,0.5-0.7,0.7-1c0.1,0.6,0.3,1.1,0.5,1.8c-0.1,0.1-0.8,0.5-1,0.6
		c-1.3,1-2.8,0-3.9-0.7L73,91l3.6-6.7C76.6,85.7,77,87.3,77.3,88.6"/>
	<path id="path201" inkscape:connector-curvature="0" d="M69.5,89.4c1.9-0.8,2.6-2.9,3.6-4.5C72.2,86.5,72.1,89.4,69.5,89.4
		 M64.3,56c0.4-0.8,0.5-1.6,1.2-2.3C65.8,54.7,65,55.4,64.3,56 M67.9,60.3c0-0.8,0.8-1,1.3-1.8C69.2,59,68.3,59.7,67.9,60.3
		 M112.8,80.3c-0.1,2.3,0.3,12.9-8.9,22.3l5.3,1.9l0.4-1.4c0.1,0.2,0.3,0.2,0.5,0.3c0.5,0.3,0.4,0.2,1,0.2l2-0.2
		c0.7-0.2,1.3-0.8,1.5-1.5l0.7,0.2l0.3,0.2c0.6,0.1,1.6,0.4,2-0.2l0.8,1.4l0.5,2.4c2.8,7.4,3.1,16.3,10.4,21.3l0.6,0.3l1.3,0.5
		l3.4,5c1,1.2,2.2,1.9,3.4,2.7c0.5,0.1,1.2,1.5,1.6,1.1l0.5-1.4l-1-5.1c0.7,0.3,1.6,0.3,2.3,0.5l1.1-0.9l-0.5,0.1
		c-1.1-0.5-2.5-0.7-3.5-1.7c-4.4-4.7-3.6-11.5-8-16.2C129,103,128.4,93.3,127,84c1.4-1.3,0.9-3.9,3.2-4.5c1.5,8,1.5,16.7,2.4,24.9
		c0.9,0.4,1.8,0.9,2.4,1.8c0.5,6.7,1.3,13.3,3.9,19.1c-0.3-2.3-1.1-4.6-1.4-6.9l-0.8-8.2c1.1,3.4,1.7,7.7,4,9.2
		c2.5,1.7,3.7,0.4,3.7,0.4c-0.4-0.5-0.8-0.2-1.2-0.4c-7.3-2.7-3.6-12.1-9.2-16.4l-2-21.5l-0.4-3.1c0.8-1.5,1.1-3.2,1.4-4.8l2.3-0.7
		l0.2,1.4l1.2,23.1l1.1,0.8c0.7,5.4,0.7,11.1,2.8,15.9c-1.3-4.5-1.4-9.9-1.6-14.8c3.1,2.3,2.3,6.3,4,9.1l0.5-0.1
		c-1.7-4-0.8-9-5.4-11.6c-0.5-8.3-1.1-16.6-1.6-24.9c0.3-0.5,0.4-1.1,0.8-1.5c0.6,1.4,2.3,1.6,3.6,1.6c1.4,11.2,1.4,22.9,4.1,33.5
		c-1.5-11.1-2.3-22.7-3.4-34.1c0.7-0.3,1.4-0.7,1.8-1.4c-0.2-0.4,0.3-0.6,0-1c-1.1,1-2.5,1.8-3.9,1.3L138,69
		c-2.4-4.2-4.3-8.7-6.2-13.1c0.6,0.2,1.7,0.1,2.4-0.3c0.8-0.7,1.5-1.6,1.9-2.6c-1.2,1-3.2,1.9-4.8,1.2l-0.2-0.2
		c-2,1.6-4.8,3-7.5,1.9c-0.5,1.3-0.9,3-2.4,3.4l-1.2,0.1c0.3,0.8,1.1,1.6,1.5,2.4c0.3,1.3,0.5,3.1-0.2,4.3c-0.4,1.2-2.8,0.5-1.9,2.4
		c0.1,1.3,0.3,2.8-0.5,3.8c-1.2,1.2-2.6,2.3-4,2.1c-0.2,1.2-1.9,3.4-1.9,3.4S112.9,79.1,112.8,80.3 M115.1,63.6
		c1.5-4.8-3.9-8.8-1.1-13.6C112.5,54.8,117.9,58.8,115.1,63.6 M126.2,52.8L126.2,52.8c-0.4-0.1-0.8-0.7-0.6-1.1
		C125.8,52,126.2,52.3,126.2,52.8"/>
	<path id="path203" inkscape:connector-curvature="0" class="st12" d="M130.7,55.4c2,4.3,3.6,8.8,5.9,13c0.1,1-0.5,1.8-1.1,2.6
		c-0.7,0.5-1.6,0.8-2.4,0.5c-3.5-4.2-6-8.7-8.3-13.4C127,58.3,129,57,130.7,55.4L130.7,55.4z"/>
	<path id="path205" inkscape:connector-curvature="0" d="M121.5,57.7c-0.8,0-1.7-0.7-2.5-1.2l0.2-0.4C120.2,56,121,57.1,121.5,57.7
		 M140.5,66.8c-1.5-3.4-3-7-4-10.4C138.1,59.7,139.1,63.3,140.5,66.8 M134.5,70c-1.2-0.4-1.7-2-2.4-3.1c-1.4-2.8-3.2-5.4-3.8-8.5
		C129.6,62.5,132.7,66,134.5,70"/>
	<path id="path207" inkscape:connector-curvature="0" class="st12" d="M131.8,72.3c0.4,1.6-0.1,3.1-0.8,4.4
		c-0.7,0.8-1.5,1.5-2.6,1.2c-2.5-3.1-4.9-6.2-6.5-9.6c-0.2-0.8,0.5-1.6,0.6-2.4c0.3-1.7-0.3-3.1-0.7-4.5c0.8-0.8,1.5-1.9,1.8-3
		C126.4,63,128.1,68.1,131.8,72.3L131.8,72.3z"/>
	<path id="path209" inkscape:connector-curvature="0" d="M120,63.9c0.3,0.4,0.4,0.8,0.5,1.2c-0.9-0.7-2-1.3-2.7-2.3
		C118.8,62.7,119.4,63.4,120,63.9 M130.1,76.1c-0.4,0.6-1-0.3-1.3-0.6c-2.2-3.9-4.7-7.6-5.9-11.8C125.4,67.8,127.3,72.2,130.1,76.1
		 M116.8,71.3c-1.3-0.9-2.1-2.2-2.7-3.5C115.7,68.2,116.5,70,116.8,71.3"/>
	<path id="path211" inkscape:connector-curvature="0" class="st11" d="M121,68.7c1.8,3.7,4,7.3,6.8,10.6c0.4,1.4-0.5,2.4-1.3,3.3
		c-0.8,0.6-1.7,0.9-2.8,0.8c-2.2-2.4-3.6-5.1-5.2-7.8c1.6-1.9,1.7-4.4,2-6.8L121,68.7"/>
	<path id="path213" inkscape:connector-curvature="0" d="M124.8,80.1c0.4,0.5,1.6,0.1,1.5,1.2c-0.6,0.4-1.1-0.1-1.7-0.3
		c-1.5-2.3-3-4.6-4-7.1C121.8,76,123.3,77.9,124.8,80.1"/>
	<path id="path215" inkscape:connector-curvature="0" class="st11" d="M117.4,75.6c1.3,3.1,3.2,5.9,5.4,8.7c0.1,1.3-0.9,2.3-1.9,3
		c-1,0.4-2.2-0.3-2.4-1.3c-0.9-3.4-5.5-6.1-3-10C116.1,75.8,116.7,75.7,117.4,75.6"/>
	<path id="path217" inkscape:connector-curvature="0" d="M119.7,84.6c0.4,0.7,1.8,0.6,1.2,1.7c-0.9,0.1-1.6-0.5-2-1.3l-2.7-6.8
		L119.7,84.6"/>
	<path id="path219" inkscape:connector-curvature="0" class="st11" d="M118,87.6c-0.6,1.5-2.3,2-3.7,2.1c-0.9-0.1-2.3-0.4-2.5-0.9
		c0.3-1.3,0.7-3.4,0.9-5.1c1.2,1.5,1.1,4.6,3.4,4.7c0.4-0.1,0.2-0.5,0.2-0.8c-1.9-0.8-2.6-3.5-3.6-5.1c0.1-0.9,0.1-1.7,0.2-2.6
		c0.2-0.2,0.6-0.4,1-0.5L118,87.6"/>
	<path id="path221" inkscape:connector-curvature="0" class="st12" d="M117.2,90.6c0.9-0.7,1.1-3.2,2.7-1.6l1.3-0.2l0.4,1.2
		c0.8,9.4,2.6,18.5,4.1,27.4c2.8,2.5,3.3,6,4.8,9.1c-4.1-2.6-6.3-7.2-7.9-11.5c-1.4-3.4-2.2-7.1-3.5-10.5
		C119.2,104.5,117.5,95.1,117.2,90.6L117.2,90.6z"/>
	<path id="path223" inkscape:connector-curvature="0" class="st11" d="M114,91.2c0.3,3.1,1,5.9,1.8,8.8c0.3-1.3-0.5-2.5-0.5-3.9
		c-0.2-1.6-0.4-3.1-0.8-4.7c0.4-0.3,0.8-0.4,1.2-0.3c0.6,3.7,1.3,7.4,2.2,11c-0.4-0.8-1.3-0.2-1.9-0.5c-4-2-2-7.1-3.4-10.5l0.1-0.5
		L114,91.2"/>
	<path id="path225" inkscape:connector-curvature="0" class="st12" d="M139.3,134.9l-0.8-5.1c-2.5-2.8-3.7-6.2-4.8-9.6
		c-0.4,3,0.6,5.8,1,8.5h-0.1c-1.7-3.8-1.9-8.1-2.4-12.4c-0.7-1.2-1.4-2.7-2.8-3.4c-0.9-9.5-2.6-18.6-3.4-28.1h-2.3l-0.9,3
		c1.1,9.6,2.3,19.2,4.3,28.4c4.2,5.3,3.5,12.9,9.6,17.3L139.3,134.9L139.3,134.9z"/>
	<path id="path227" inkscape:connector-curvature="0" class="st11" d="M109.9,101.8c0.1,0.2,0.3,0.4,0.5,0.5
		c0.5,0.3,1.2,0.3,1.8,0.3c0.7-0.1,1.3-0.9,1.5-1.5c-1.7-2.9-1.3-7.4-1.9-10.8c-0.1,0-0.4-0.3-0.5-0.1c-0.2,0.7-0.7,1.7-0.7,2.1
		c0.4,2.4,1.2,5,0.7,7.5c-0.7-2.2-0.1-4.8-1-6.9c-0.6,1.4-0.9,2-1.5,3.1l0.9,5.3C109.8,101.6,109.9,101.7,109.9,101.8 M108.2,97.3
		l0.8,3.7c0,0-0.5-0.9-1.3-1c-0.8-0.1-1.4-0.1-1.4-0.1L108.2,97.3"/>
	<path id="path229" inkscape:connector-curvature="0" class="st12" d="M107.6,132.7c-1.3,0.6-2.7,0.9-4,1.4l-0.3-6.2l-0.4-0.4
		l-0.7-8v-0.3l-0.4-0.4c0.9-5.5-2.8-11.1,0.7-15.9c1.2-0.8,2.7-1.5,4.3-1.1c0.9,0.3,1.7,1.1,2.4,1.7c0-0.4-0.4-1-0.8-1.5
		c-0.8-1.1-2.3-1.2-3.4-1.4c0.9-0.4,1.8-0.4,2.7,0c1.2,0.5,2.2,1.8,2.9,2.8c1,3.2,1.1,6.7,1.9,10c1.2,6.4,2.8,12.6,4.1,19.1
		c-1.1-0.1-2,0.2-3,0.1L107.6,132.7L107.6,132.7z"/>
	<path id="path231" inkscape:connector-curvature="0" class="st10" d="M113.5,132.8c-6.2-4.1-4.9-11.5-7-17.5
		c-0.3-1.6-0.6-3.2-1.1-4.8c0.3,5.1,1.9,9.9,2.8,14.8c0.8,1.2,0.7,2.9,1,4.4c-0.4,1.1-0.7,2.1-1.6,3L113.5,132.8L113.5,132.8z
		 M83,132.9l-1.8-4.6c0.3-2,0.7-4.2,0.5-6.3c-0.8,3.8-2.1,8.5-6.1,11.2L83,132.9L83,132.9z"/>
	<path id="path233" inkscape:connector-curvature="0" d="M87.6,106.9L87.6,106.9c-1.1-0.2-2.5-0.4-3.4-1.4c-1.3,0.7-3,0.8-4.5,0.7
		v-0.2c1.6-0.6,3.1-1,4.5-2C85.1,105.2,86.7,106.1,87.6,106.9 M83.6,111.2l0.6,0.1c1.2,2.3,2.6,4.5,3.4,6.9c-2.5-1.5-2.7-4.7-4-6.8
		l-1.8,10.4c0.4-5.4,1.6-10.5,2.3-15.8C84.2,107.9,83.7,109.5,83.6,111.2"/>
	<path id="path235" inkscape:connector-curvature="0" class="st16" d="M107.5,106.8c2.1,4.8,3.5,10.1,5.5,14.6
		c-2.4-4.7-4.3-9.7-5.7-14.6H107.5z"/>
	<path id="path237" inkscape:connector-curvature="0" d="M83.1,108.7c-1.9,5.1-2.3,10.8-6.3,15l-0.2-0.2l4.3-8.9l2.2-7.1L83.1,108.7
		 M83.5,120c1.1,3.1,2.4,6.1,3.5,9.1c-2.2-2.5-3.6-5.8-3.7-9.1H83.5 M105.7,122.7c-0.5,1.2-0.8,2.5-1.9,3.5l2.1-5.7
		C106.4,120.9,106.1,122.1,105.7,122.7"/>
	<path id="path239" inkscape:connector-curvature="0" class="st1" d="M112.8,80.3c0,0,0.4,11-6.2,19.2c-7.3,8.9-12,10.6-12,10.6
		s-4.7-1.7-12-10.6c-6.6-8.1-6.2-19.2-6.2-19.2L112.8,80.3L112.8,80.3L112.8,80.3z"/>
	<path id="path241" inkscape:connector-curvature="0" class="st17" d="M93.1,109.4V80.3H90v26.9C90,107.2,91.4,108.3,93.1,109.4z
		 M81.3,97.8V80.3h-2.9V92C78.4,92,79.8,95.8,81.3,97.8z M87,104.5V80.3h-2.9v21.1C84.1,101.4,85.4,102.8,87,104.5z M96,109.4V80.3
		h3.1v26.9C99.1,107.2,97.7,108.3,96,109.4L96,109.4z M107.9,97.8V80.3h2.9V92C110.7,92,109.4,95.8,107.9,97.8z M102.1,104.5V80.3
		h2.9v21.1C105,101.4,103.8,102.8,102.1,104.5z"/>
	<path id="path243" inkscape:connector-curvature="0" class="st18" d="M112,70.4c0,0,1.1,5,0.8,9.9c0,0-36.5,0-36.5,0
		c0-5,0.8-9.9,0.8-9.9L112,70.4L112,70.4z"/>
	<polygon id="polygon245" class="st19" points="15.9,116.8 15.9,116.8 18.5,120.5 17.7,122.7 	"/>
	<polygon id="polygon247" class="st3" points="15.9,116.8 15.9,116.8 15.8,121.3 17.7,122.7 	"/>
	<polygon id="polygon249" class="st19" points="11.4,122.7 11.4,122.7 15.8,121.3 17.7,122.7 	"/>
	<polygon id="polygon251" class="st3" points="11.4,122.7 11.4,122.7 15.8,124.1 17.7,122.7 	"/>
	<polygon id="polygon253" class="st19" points="15.7,128.7 15.7,128.7 15.8,124.1 17.7,122.7 	"/>
	<polygon id="polygon255" class="st3" points="15.7,128.7 15.7,128.7 18.4,125 17.7,122.7 	"/>
	<polygon id="polygon257" class="st19" points="22.8,126.5 22.8,126.5 18.4,125 17.7,122.7 	"/>
	<polygon id="polygon259" class="st3" points="22.8,126.5 22.8,126.5 20.1,122.8 17.7,122.7 	"/>
	<polygon id="polygon261" class="st19" points="22.9,119.1 22.9,119.1 20.1,122.8 17.7,122.7 	"/>
	<polygon id="polygon263" class="st3" points="22.9,119.1 22.9,119.1 18.5,120.5 17.7,122.7 	"/>
	<polygon id="polygon265" class="st19" points="177.6,114.5 177.6,114.5 177.8,119 176,120.5 	"/>
	<polygon id="polygon267" class="st3" points="177.6,114.5 177.6,114.5 175.1,118.3 176,120.5 	"/>
	<polygon id="polygon269" class="st19" points="170.7,117.1 170.7,117.1 175.1,118.3 176,120.5 	"/>
	<polygon id="polygon271" class="st3" points="170.7,117.1 170.7,117.1 173.6,120.7 176,120.5 	"/>
	<polygon id="polygon273" class="st19" points="171.1,124.5 171.1,124.5 173.6,120.7 176,120.5 	"/>
	<polygon id="polygon275" class="st3" points="171.1,124.5 171.1,124.5 175.3,122.9 176,120.5 	"/>
	<polygon id="polygon277" class="st19" points="178.2,126.4 178.2,126.4 175.3,122.9 176,120.5 	"/>
	<polygon id="polygon279" class="st3" points="178.2,126.4 178.2,126.4 178,121.9 176,120.5 	"/>
	<polygon id="polygon281" class="st19" points="182.2,120.2 182.2,120.2 178,121.9 176,120.5 	"/>
	<polygon id="polygon283" class="st3" points="182.2,120.2 182.2,120.2 177.8,119 176,120.5 	"/>
	<path id="path285" inkscape:connector-curvature="0" class="st10" d="M102.1,119.6L102.1,119.6c1.8-1.7,3-3.9,3.1-6.2l-0.1-0.1
		c-0.7,2.1-2.1,3.9-3,5.9V119.6z"/>
	<path id="path287" inkscape:connector-curvature="0" d="M105.2,109.6L105.2,109.6l-0.2-1.7l0.1,0l0.1,1.4V109.6 M108.5,105.6
		c-1.2,0.3-2.5,0-3.5-0.5c-1,0.7-2.1,1.2-3.4,1.4c0.7-0.9,2.2-1.6,3.2-2.7C105.8,104.8,107.1,105.3,108.5,105.6"/>
	<path id="path289" inkscape:connector-curvature="0" class="st20" d="M80.7,136.2c0,0,0.9-3.6,3.6-3.6c2.7,0,2.4,0.6,3,1.1
		c0.5,0.4,1.1,1.1,0.9,1.6c0,0-0.2,0.2-0.2,0.2c-0.1,0.1-1.2,0.7-1.5,0.8c-0.7,0.2-2.1,0.3-2.9,0.3c-1.1,0.1-1.9-0.5-2.2-0.5
		C81.1,136.1,80.7,136.2,80.7,136.2L80.7,136.2z"/>
	<path id="path291" inkscape:connector-curvature="0" d="M81.8,136c0,0-0.5-0.5,0.1-1.2c0.1-0.1,0.4-0.1,0.6-0.5
		c0.3-0.7,1.5-1,2.1-0.9c0.9,0.1,2.9,1.7,2.9,1.7s0.4,0.7,0,0.4c-0.4-0.2-0.6-0.6-1.2-0.5c-0.6,0.1-1.5,0.8-2.2,0.6
		c-0.7-0.2-1.3-0.8-1.6-0.7C82.4,135,81.8,136,81.8,136"/>
	<path id="path293" inkscape:connector-curvature="0" class="st20" d="M88.2,135.1c0.6,0.3,1,0.8,1.5,1.4c0.4,0.7,0.4,2.1,0,3.1
		c-0.3,0.7-2.2,1.7-2.2,1.7s1-2,0.9-2.8c-0.1-0.7-0.5-1.1-0.9-1.5c-0.3-0.3-1-0.7-1-0.7s0.8-0.7,1.2-0.8
		C88,135.3,88.2,135.1,88.2,135.1z"/>
	<path id="path295" inkscape:connector-curvature="0" d="M87.4,135.5l0.3-0.1c0,0,1.1,0.8,1.4,1.7c0.1,0.4,0.3,1-0.1,2.1
		c-0.3,0.6-0.7,1.1-0.7,1.1s0.4-0.8,0.7-1.9c0.1-0.5,0-1.2-0.7-2C88,136.2,87.4,135.5,87.4,135.5"/>
	<path id="path297" inkscape:connector-curvature="0" class="st20" d="M77.3,136c0,0-0.3,1.4-0.2,2.5c0.1,1.2,1,2.5,1.9,2.7
		c1.1,0.2,1.7,0.1,1.7,0.1c-0.4-0.3-1.4-1.1-1.5-2c-0.1-0.8,0.3-1.1,0.4-1.7s0.3-0.8,0.3-0.8s-0.7-0.4-1.2-0.6
		C78.2,136.1,77.3,136,77.3,136z"/>
	<path id="path299" inkscape:connector-curvature="0" d="M78.4,136.2c0,0-0.4,0.9-0.4,1.6c0,1.2,0.1,1.6,0.3,2.1
		c0.2,0.4,1.3,1,1.3,1s-0.8-0.6-1-1.6c-0.1-1,0.1-2.2,0.3-2.8L78.4,136.2"/>
	<path id="path301" inkscape:connector-curvature="0" class="st20" d="M78.3,133.1c0,0-2.9,0.1-3.5,0c-0.6-0.1-0.7-0.3-1.2-0.2
		c-0.5,0-2.8,0.5-3.3,1.5c-0.5,0.9-0.8,1.5-0.8,1.7c0,0.2,0.9,0.3,1.2,0.4c0.3,0.1,1.4,0.3,1.7,0.3c1.4,0.3,3.2-0.1,2.6,0
		c0.8-0.1,1.7-0.5,1.9-0.7c0.2-0.2,0.5-0.5,0.6-0.8C77.7,134.9,78.3,133.1,78.3,133.1L78.3,133.1z M82.6,133.2c0,0-1.2-2.7-2.1-3.7
		c0,0-1.3,1.7-1.7,2.5c-0.4,0.8-1.6,2.7-1.5,3c0,0.3-0.2,0.8-0.1,0.9c0.1,0.1,0.2,0.1,0.9,0.3c0.7,0.1,1,0.3,1.3,0.5
		c0.3,0.2,0.9,0.3,1.1,0.3c0.2,0,0.4-0.7,0.4-0.7s0.4-1.3,0.8-1.7C81.8,134,82.6,133.2,82.6,133.2z"/>
	<path id="path303" inkscape:connector-curvature="0" d="M81.3,134.8c0,0-0.5-0.6-0.9-0.7c-0.4-0.2-1.1-0.2-1.1-0.2
		s-0.6,0.2-0.6,0.4c0,0.2,0,0.5,0.1,0.6c0.1,0.1,0.4,0.3,0.9,0.4c0.6,0.1,1.2,0.4,1.2,0.4L81.3,134.8"/>
	<path id="path305" inkscape:connector-curvature="0" class="st20" d="M69.8,136.1c0,0-0.3,1.4,0.1,3c0.3,1,1,1.9,1.7,2.2
		c0.7,0.3,2.8,0.1,2.8,0.1s-1.4-0.2-2.1-1.6c-0.4-0.7-0.3-1.7-0.2-2.1c0.1-0.5,0.2-0.9,0.2-0.9s-1.1-0.2-1.4-0.3
		C70.6,136.3,69.8,136.1,69.8,136.1z"/>
	<path id="path307" inkscape:connector-curvature="0" d="M70.7,136.4c0,0-0.1,1.1,0,1.8c0.1,0.6,0.6,1.3,0.6,1.3s-0.2-0.9-0.2-1.3
		c0-0.5,0.1-1.7,0.1-1.7L70.7,136.4 M77.4,134.4c0,0-1.6-0.1-2.4,0c-0.8,0.1-1.2,0.3-1.4,0.4c-0.2,0.1-1.3,0.3-1.3,0.3l-1.4,1.3
		l0.9,0.2c1-0.2,0.4-0.8,2.1-0.9c0.9-0.1,2.9-0.6,3.3-0.9L77.4,134.4"/>
	<path id="path309" inkscape:connector-curvature="0" class="st20" d="M109.1,132.6c0,0-0.6,0-1.6,0.2c-1,0.1-2.9,0-3.4,0.5
		c-0.5,0.5-2,1.2-2.5,2.2c-0.5,1-0.6,1.6-0.4,1.8c0.2,0.2,0.3,0.1,0.8,0.2c0.6,0.1,1.2,0.3,1.9,0.4c1.3,0.2,2-0.6,2.5-0.8
		c0.7-0.3,2.1-0.7,2.5-0.8c0.5-0.1,0.3-1.4,0.3-1.4L109.1,132.6L109.1,132.6z M103.8,137.9c0,0-0.1,1.3,0.4,2.1
		c0.4,0.8,0.8,0.9,1.3,1c0.5,0.1,1.2,0.1,1.2,0.1s-0.8,0.9-1.8,0.8c-0.9-0.2-2.3-1.3-2.7-1.9c-0.6-0.9-0.6-2.6-0.6-2.6
		s1,0.1,1.3,0.2C103.4,137.7,103.8,137.9,103.8,137.9z"/>
	<path id="path311" inkscape:connector-curvature="0" d="M108.5,133.8c0,0.1-0.6,0.6-0.6,0.6l-1.7,0.5l-1.3,0.6l-1.2,0.8
		c0,0-0.7,0.7-0.7,0.8c-0.1,0.1-0.1,0.4-0.1,0.4l0.9,0.3c0,0,0-0.3,0.3-0.5c0.2-0.2,0.5-0.4,0.6-0.5c0.4-0.3,1-0.6,1.3-0.7
		c0.3-0.1,1.2-0.6,1.4-0.7c0.1-0.1,0.5,0,0.8-0.2C108.5,135,108.5,133.8,108.5,133.8 M102.8,137.6c0,0-0.1,1.3,0.1,1.7
		c0.2,0.5,0.7,0.9,0.7,0.9s-0.3-1-0.4-1.4c0-0.3,0.1-1.1,0.1-1.1L102.8,137.6"/>
	<path id="path313" inkscape:connector-curvature="0" class="st20" d="M112.6,132.7c0.5-0.1,0.9,0,2-0.2c1.1-0.2,1.9,0,2.7,0.2
		c1.2,0.3,2.5,1.2,2.7,1.5c0.3,0.4,0.6,1.7,0,2.1c-0.6,0.3-1.4,0.7-1.9,0.6c-0.5-0.2-2.2-0.3-3-0.4c-0.8-0.1-1.3-0.1-1.3-0.1
		L112.6,132.7z M120.1,136.2c0,0,0.3,0.7,0.3,1.6c0,0.9-0.2,1.6-0.5,2.2c-0.3,0.7-1.8,1.3-1.8,1.3s0.6-0.9,0.8-1.6
		c0.2-0.7,0-1.6-0.1-2c-0.1-0.4-0.4-0.8-0.4-0.8s0.3-0.1,0.6-0.2C119.3,136.5,120.1,136.2,120.1,136.2L120.1,136.2z"/>
	<path id="path315" inkscape:connector-curvature="0" d="M119.3,136.6c0,0,0.2,0.2,0.4,0.9c0.1,0.6,0.1,1.6,0.1,1.6s0.3-1,0.2-1.6
		c-0.1-0.6-0.4-1.1-0.4-1.1L119.3,136.6"/>
	<path id="path317" inkscape:connector-curvature="0" class="st20" d="M110.1,130.9c-0.7,0-1.5,0.5-2,1.1c-0.5,0.6-0.4,1.6-0.2,2.2
		c0.2,0.6,0.8,1.7,1.3,2.3c0.6,0.6,1.5,1,2.4,1c0.9-0.1,2.3-0.1,2.3-0.9c0-0.7-0.2-1.6-0.4-2.3c-0.2-0.7-0.5-1.4-1-2
		C111.8,131.3,111.5,130.9,110.1,130.9L110.1,130.9z"/>
	<path id="path319" inkscape:connector-curvature="0" d="M113.5,134c0,0,0.1,0.4,0.1,0.5c0,0.1,0,0.5,0,0.5s-0.9,0.6-1.3,0.6
		c-0.4-0.1-1.2-0.1-1.7-0.6c-0.5-0.5-0.8-1.2-0.8-1.2s1.7,0.7,2.5,0.7C112.6,134.4,113.5,134,113.5,134"/>
	<path id="path321" inkscape:connector-curvature="0" class="st20" d="M110.8,137.2c0,0,0.6,0.7,0.6,1.3c0,0.6-0.1,1.2-0.3,1.6
		c-0.3,0.4-0.8,1.4-0.8,1.4s0.6,0.1,1.2-0.3c0.6-0.4,1.4-1,1.7-1.9c0.2-0.8,0.1-2.2,0.1-2.2s-1,0.3-1.8,0.3
		C111.2,137.5,110.8,137.2,110.8,137.2z"/>
	<path id="path323" inkscape:connector-curvature="0" d="M112,138c0,0,0,1.1-0.1,1.4c-0.1,0.3-0.3,1-0.3,1s0.6-0.8,0.7-1.3
		c0.1-0.5,0-1.1,0-1.1L112,138 M119.3,134c0.5,0.5,1,1.2,0.6,2c0,0.1-0.2,0.1-0.3,0.1c-0.5-0.6-0.2-1.7-1.3-1.8
		c-1.3-0.8-3.3,0.4-4.6-0.6c1.4-0.3,3.2-0.3,4.8,0L119.3,134"/>
	<polygon id="polygon325" class="st6" points="55,143.8 53.2,143.8 53.2,141.4 69.8,141.4 69.8,143.8 68,143.8 68,146.3 69.8,146.3 
		69.8,149.7 62.2,149.7 62.2,146.3 63.6,146.3 63.6,143.8 59.4,143.8 59.4,143.8 59.4,146.3 60.7,146.3 60.7,149.7 53.2,149.7 
		53.2,146.3 55,146.3 	"/>
	<path id="path327" inkscape:connector-curvature="0" class="st9" d="M69.2,141.4v1.9h-1.8v2.9 M69.2,146.3v3.1h-6.9 M63.6,143.8
		v-0.4h-4.8v2.9 M60.1,146.3v3.1h-6.9 M55,143.8v-0.4h-1.7"/>
	<path id="path329" inkscape:connector-curvature="0" d="M103.3,70.4l-1.4-3.7l0.4-0.1l-1.1-3.6l0.5,0.1l-1.4-3l0.6,0.1l-0.6-2.9
		h0.3l-0.5-2.2l0.5-0.1l-0.9-2.8l0.6,2.6l-0.7-0.1l0.7,2.3L99.7,57l0.8,3.1l-0.7-0.1l1.3,2.9c0,0-0.9-0.4-0.7-0.1
		c0.2,0.3,1.4,3.7,1.4,3.7l-0.7,0.1l1.6,3.9H103.3"/>
	<path id="path331" inkscape:connector-curvature="0" d="M27.5,136.1c0.2,0.3,0.3,0.6,0.5,0.9c0.2,0.3,0.4,0.6,0.6,0.8l-3.3,2.1
		c-0.6,0.4-1.6,1-2.1,1.5c-0.5,0.5-0.8,0.8-0.9,1.5c-0.1,0.6,0,1.1,0.4,1.6c0.7,1.1,1.5,1.4,2.7,1.2c0.6-0.1,2-1,2.5-1.3l3.5-2.3
		c0.1,0.2,0.2,0.3,0.3,0.5c0.1,0.1,0.2,0.3,0.3,0.4l-4.1,2.7c-1.3,0.8-2.5,1.6-4.1,0.9c-0.9-0.3-1.5-1-2-1.8
		c-0.9-1.4-1.4-3.2-0.2-4.6c0.4-0.4,0.8-0.8,1.3-1.1L27.5,136.1 M33.1,144.4l0.9,1c-0.4,2.9-0.7,5.8-1.1,8.7l4.9-4.1
		c0.1,0.2,0.2,0.3,0.3,0.4c0.1,0.1,0.3,0.3,0.4,0.4l-7.2,6.1l-0.7-0.9c0.3-2.4,0.7-4.6,0.9-6.8l0.2-2.2l-5.1,4.3
		c-0.1-0.1-0.2-0.3-0.3-0.4c-0.1-0.1-0.3-0.3-0.4-0.4L33.1,144.4 M39.8,152.1c0.2,0.3,0.4,0.5,0.7,0.8c0.2,0.2,0.5,0.5,0.8,0.7
		l-6.7,6.7c-0.2-0.3-0.4-0.5-0.7-0.8c-0.2-0.2-0.5-0.5-0.8-0.7L39.8,152.1 M39.4,164.5c-0.2-0.2-0.5-0.5-0.7-0.7
		c-0.3-0.2-0.5-0.4-0.8-0.6l5.5-6.4c-0.7-0.6-1.5-1.1-2.1-1.5c0.1-0.1,0.3-0.2,0.4-0.4c0.1-0.1,0.2-0.3,0.3-0.5l5.4,4.6
		c-0.1,0.1-0.3,0.3-0.4,0.4c-0.1,0.2-0.2,0.3-0.3,0.5c-0.6-0.6-1.1-1.2-1.7-1.8L39.4,164.5 M52.3,162.5c-0.1,0.1-0.3,0.3-0.4,0.4
		c-0.1,0.2-0.2,0.4-0.3,0.5c-0.6-0.6-1.3-1.2-2.5-2l-1.7,2.4l1.2,0.8c0.5,0.4,1,0.7,1.4,0.9c-0.1,0.1-0.3,0.3-0.4,0.4
		c-0.1,0.2-0.2,0.3-0.3,0.5c-0.4-0.4-0.8-0.7-1.3-1.1l-1.2-0.8l-2,2.8c1.1,0.8,1.9,1.3,2.7,1.7c-0.1,0.1-0.3,0.3-0.4,0.4
		c-0.1,0.2-0.2,0.3-0.3,0.5l-4.2-3.1l5.5-7.6L52.3,162.5 M57.4,165.6c2.5,1.6,2.5,3.9,1.4,5.9c-1.6,2.7-4.4,3.2-6.8,1.8l-3.3-1.9
		l4.7-8.1L57.4,165.6z M50.8,171.7l1,0.6c1.6,0.9,3.4,0.8,5-1.9c1.3-2.2,0.7-3.7-0.9-4.7l-1.2-0.7L50.8,171.7 M78,180.5
		c-0.6,1-1.1,1.7-1.5,2.6c-0.2-0.1-0.4-0.1-0.6-0.2c-0.2,0-0.4-0.1-0.7-0.1l5.7-8.6c0.2,0.1,0.3,0.1,0.5,0.1c0.2,0,0.3,0.1,0.5,0.1
		l2,10.1c-0.4-0.1-0.8-0.2-1.1-0.3c-0.4-0.1-0.8-0.1-1.2-0.2c-0.1-1.1-0.2-2-0.4-3L78,180.5z M81,180.2l-0.6-3.4l-1.9,2.9L81,180.2
		 M89.3,185.1c-0.3-0.1-0.7-0.1-1-0.2c-0.3,0-0.7,0-1,0l0.8-8.4c-1-0.1-1.8-0.1-2.6,0c0-0.2,0.1-0.4,0.1-0.6c0-0.2,0-0.4,0-0.6
		l7.1,0.7c0,0.2-0.1,0.4-0.1,0.6c0,0.2,0,0.4,0,0.6c-0.8-0.2-1.6-0.3-2.4-0.4L89.3,185.1 M133.4,174.2c0.2,1.1,0.2,2,0.4,3
		c-0.2,0.1-0.4,0.2-0.6,0.3c-0.2,0.1-0.4,0.2-0.6,0.3l-0.8-10.3c0.2-0.1,0.3-0.1,0.5-0.2c0.2-0.1,0.3-0.2,0.4-0.3l7.7,6.8
		c-0.4,0.2-0.7,0.3-1.1,0.5c-0.4,0.2-0.7,0.4-1,0.6c-0.7-0.8-1.4-1.5-2.2-2.1L133.4,174.2z M135.6,172.2l-2.5-2.3l0.3,3.4
		L135.6,172.2 M143.8,160.5c0.2-0.1,0.4-0.2,0.5-0.3c0.2-0.1,0.3-0.3,0.5-0.4c2.4,2.8,4.4,5.1,6.3,7.1c-0.3,0.2-0.7,0.4-1,0.6
		c-0.3,0.2-0.6,0.4-0.9,0.7c-1.3-1.8-2.7-3.3-4.1-5c0.3,2.3,0.6,4.6,1,7c-0.2,0.1-0.3,0.2-0.4,0.3c-1.8-1.1-3.9-2.2-6-3.4
		c1.1,2.2,2,3.9,3,5.5c-0.2,0.1-0.4,0.2-0.6,0.3c-0.2,0.1-0.3,0.3-0.5,0.4c-1.1-2.6-2.6-5.5-4.1-8.6c0.2-0.1,0.3-0.2,0.5-0.3
		c0.2-0.1,0.3-0.2,0.4-0.4c2,1.2,4.1,2.4,6.2,3.6C144.5,165.4,144.2,163,143.8,160.5 M150.4,155c0.1,0.2,0.2,0.3,0.3,0.5
		c0.1,0.1,0.3,0.3,0.4,0.4c-0.7,0.5-1.5,1-2.5,1.9l1.9,2.2l1.1-0.9c0.5-0.4,0.9-0.8,1.2-1.2c0.1,0.2,0.2,0.3,0.3,0.5
		c0.1,0.1,0.3,0.3,0.4,0.4c-0.4,0.3-0.9,0.6-1.4,1l-1.1,0.9l2.3,2.7c1.1-0.9,1.7-1.6,2.3-2.2c0.1,0.2,0.2,0.3,0.3,0.5
		c0.1,0.1,0.3,0.3,0.4,0.4l-4,3.4l-6.1-7.1L150.4,155 M151.2,154.2l2-2.1c0.5-0.5,1.1-1.2,1.8-1.4c0.8-0.3,1.6-0.1,2.2,0.5
		c1,0.9,1,2.2,0.3,3.3c1.5,0.4,3,0.7,4.5,1l1,0.2c-0.3,0.3-0.6,0.5-0.9,0.8c-0.3,0.3-0.5,0.6-0.8,0.9l-3.2-0.8
		c-0.4-0.1-1.1-0.3-1.7-0.4l-0.1,0.1l3.2,3.1c-0.3,0.2-0.5,0.4-0.8,0.7c-0.2,0.2-0.4,0.5-0.7,0.8L151.2,154.2L151.2,154.2z
		 M155.8,155.9c1.1-0.9,1.1-1.9,0.1-2.9c-0.1-0.1-0.3-0.3-0.5-0.4c-1-0.6-1.6,0.2-2.2,0.8L155.8,155.9 M156.8,148.3
		c0.2-0.2,0.5-0.5,0.7-0.7c0.2-0.3,0.4-0.6,0.6-0.8l7.2,6.1c-0.2,0.2-0.5,0.5-0.7,0.7c-0.2,0.3-0.4,0.6-0.6,0.8L156.8,148.3
		 M170,143.8l0.8,0.9c-0.1,0.9-0.6,1.8-1.1,2.6c-1.7,2.4-4.5,3.2-6.8,1.5c-2.9-2.1-2.8-5-1.1-7.5c0.5-0.7,1.4-1.5,2.2-1.9
		c0.3,0.4,0.6,0.7,1,1.1l-0.1,0.2c-0.9,0-1.8,0.4-2.4,1.1c-1.3,1.9-0.1,3.9,1.6,5c1.9,1.4,3.9,1.4,5.2-0.3c0.5-0.7,0.7-1.8,0.6-2.6
		L170,143.8 M170.6,140.3c0.7,0.8,1.3,1.5,2,2.2c-0.1,0.2-0.2,0.4-0.4,0.5c-0.1,0.2-0.2,0.4-0.3,0.6l-6.4-8.1
		c0.1-0.1,0.2-0.3,0.3-0.4c0.1-0.2,0.2-0.3,0.2-0.5l10.2,1.3c-0.2,0.3-0.4,0.7-0.6,1c-0.2,0.3-0.3,0.7-0.5,1.1c-1-0.2-2-0.4-3-0.6
		L170.6,140.3L170.6,140.3z M171.3,137.4l-3.4-0.5l2.2,2.7L171.3,137.4 M7.4,109.5l-0.1-1.9c2.8-3,5.5-6.1,8.5-9.1l-9.1,0.7
		c0-0.3,0-0.5,0-0.8c0-0.3-0.1-0.5-0.1-0.8l13.4-1l0.1,1.7c-2.3,2.5-4.6,4.7-6.7,7.1l-2.1,2.3l9.4-0.7c0,0.3,0,0.5,0,0.8
		c0,0.3,0.1,0.5,0.1,0.8L7.4,109.5 M16.1,91.7c1.4,0.6,2.6,1.3,3.9,1.7c-0.1,0.3-0.1,0.6-0.1,0.9c0,0.3,0,0.6,0,0.9L6.9,88.4
		C6.9,88.2,7,88,7,87.7c0-0.3,0-0.5,0-0.7l14-4.1c-0.1,0.6-0.2,1.1-0.3,1.7c-0.1,0.6,0,1.1-0.1,1.7c-1.5,0.3-2.8,0.6-4.2,1
		C16.5,87.2,16.1,91.7,16.1,91.7z M15.3,87.5l-4.7,1.3l4.4,2.3L15.3,87.5 M22.7,76.4c-0.2,0.5-0.3,0.9-0.5,1.4
		c-0.1,0.5-0.2,1-0.3,1.4l-11.6-2.9c-0.3,1.3-0.5,2.6-0.6,3.6c-0.3-0.1-0.5-0.2-0.8-0.3c-0.3-0.1-0.5-0.1-0.8-0.1l2.4-9.8
		c0.3,0.1,0.5,0.2,0.8,0.3c0.3,0.1,0.6,0.1,0.8,0.1c-0.4,1.1-0.8,2.2-1.1,3.3L22.7,76.4 M11.7,66.8c0.2-0.4,0.4-0.9,0.6-1.3
		s0.3-0.9,0.4-1.4l12.6,4.6c-0.2,0.4-0.4,0.9-0.6,1.3c-0.2,0.5-0.3,0.9-0.4,1.4L11.7,66.8 M29.4,60.5c-2.1,3.8-5.7,5.1-9.6,3
		c-3.4-1.9-4.8-5.8-2.5-10.1c2.7-4.9,6.9-4.5,9.6-3C30.2,52.1,31.7,56.2,29.4,60.5L29.4,60.5z M21.9,60.9c2.2,1.2,5.1,1.5,6.5-1.1
		c1.4-2.6-0.6-5.3-3.4-6.8c-2.2-1.2-5.3-1.5-6.7,1C17,56.4,18,58.8,21.9,60.9 M23.5,43.8l1.2-1.5c4.1-0.2,8.2-0.6,12.4-0.7l-7-5.8
		c0.2-0.2,0.4-0.4,0.5-0.6c0.2-0.2,0.3-0.4,0.5-0.6l10.3,8.5l-1.1,1.3c-3.4,0.1-6.6,0.2-9.8,0.5l-3.1,0.2l7.3,6
		c-0.2,0.2-0.4,0.4-0.5,0.6c-0.2,0.2-0.3,0.4-0.5,0.6L23.5,43.8 M42.1,37.1c0.6,1.5,1,2.7,1.6,4c-0.3,0.2-0.5,0.4-0.7,0.5
		c-0.2,0.2-0.5,0.4-0.7,0.7l-4.5-13.9c0.2-0.1,0.4-0.3,0.6-0.4c0.2-0.2,0.4-0.3,0.5-0.5l12.9,6.8c-0.5,0.3-0.9,0.6-1.3,1
		c-0.4,0.4-0.8,0.8-1.2,1.2c-1.3-0.8-2.5-1.6-3.7-2.2L42.1,37.1L42.1,37.1z M44.4,33.5l-4.3-2.3l1.6,4.7L44.4,33.5 M54.6,30.8
		c1.4-0.9,2.6-1.8,3.6-2.6c0.1,0.3,0.2,0.5,0.4,0.8c0.1,0.2,0.4,0.4,0.5,0.7l-6.3,4l-7.1-11.2c0.4-0.2,0.9-0.4,1.3-0.7
		c0.4-0.3,0.8-0.6,1.2-0.9L54.6,30.8 M67.2,14.2c-0.7-0.8-1.7-1.2-2.7-0.8C63,14,62.7,15,63.1,16c1,2.5,6.3-0.2,7.9,4
		c0.9,2.3-0.4,4.8-3.2,5.9c-1,0.4-2.2,0.6-3.2,0.4c-0.1-0.8-0.2-1.7-0.4-2.5l0.3-0.1c0.8,1.1,2,1.5,3.3,1c1.1-0.4,1.9-1.5,1.4-2.7
		c-1.1-2.9-6.1,0.3-7.9-4.1c-0.8-2.1-0.1-4.4,2.7-5.5c1.3-0.5,2.7-0.5,3.2-0.3c0,0.7,0.1,1.3,0.1,2L67.2,14.2 M78,8.5
		c0,0.3,0,0.6,0.1,0.8c0.1,0.3,0.2,0.5,0.3,0.8c-1.2,0.1-2.5,0.3-4.4,0.9l1.1,4.1l2-0.5c0.9-0.2,1.6-0.5,2.3-0.8
		c0,0.3,0,0.6,0.1,0.8c0.1,0.3,0.2,0.5,0.3,0.8c-0.7,0.1-1.5,0.2-2.4,0.4l-2,0.5l1.2,4.8c1.9-0.5,3.2-0.9,4.3-1.4
		c0,0.3,0,0.6,0.1,0.8c0.1,0.3,0.2,0.5,0.3,0.8l-7.2,1.9l-3.3-12.9L78,8.5 M93.4,17.6l-0.2,1.7c-1.1,0.7-2.4,1.1-3.8,1.3
		c-4.2,0.5-7.6-1.8-8-5.7c-0.6-5.1,2.7-7.8,6.9-8.2c1.3-0.1,2.9,0,4.1,0.5c-0.1,0.7-0.1,1.3-0.2,2l-0.3,0c-0.8-1-2.2-1.6-3.4-1.4
		c-3.2,0.4-4.2,3.6-3.9,6.4c0.4,3.3,2.3,5.5,5.2,5.1c1.2-0.1,2.5-0.9,3.3-1.8L93.4,17.6 M96.5,6.5c0.5,0.1,1,0.2,1.5,0.2
		c0.5,0,1,0,1.5,0l-0.4,5.5c-0.1,1.1-0.2,2.7-0.1,3.7c0.1,1,0.2,1.6,0.9,2.3c0.6,0.6,1.3,0.9,2.2,1c1.8,0.1,2.8-0.5,3.6-2.1
		c0.4-0.8,0.5-3.1,0.6-4l0.4-5.9c0.2,0.1,0.5,0.1,0.8,0.1c0.2,0,0.5,0,0.8,0l-0.4,6.9c-0.2,2.2-0.3,4.2-2.4,5.5
		c-1.1,0.7-2.5,0.9-3.7,0.8c-2.4-0.1-4.9-1.1-5.4-3.6C96,16,96,15.2,96,14.4L96.5,6.5 M113,8l4,1c0.9,0.2,2.3,0.5,3,1.1
		c0.9,0.8,1.3,1.8,1,3.1c-0.4,1.9-1.9,2.8-3.8,2.7c0.6,2.1,1.4,4.1,2.1,6.1l0.5,1.4c-0.6-0.2-1.1-0.4-1.7-0.5
		c-0.6-0.1-1.2-0.2-1.7-0.3l-1.3-4.5c-0.2-0.6-0.5-1.6-0.7-2.4l-0.1,0l-1.4,6.1c-0.5-0.2-0.9-0.3-1.4-0.4c-0.5-0.1-1-0.2-1.4-0.2
		L113,8L113,8z M114.4,14.8c1.9,0.7,3.2-0.1,3.6-2c0.1-0.3,0.1-0.6,0.1-1c0.1-1.7-1.4-1.8-2.5-2.1L114.4,14.8 M125.8,11.5
		c0.4,0.2,0.9,0.4,1.3,0.6c0.5,0.2,0.9,0.3,1.4,0.4L124,25.1c-0.4-0.2-0.9-0.4-1.3-0.6c-0.5-0.2-0.9-0.3-1.4-0.4L125.8,11.5
		 M131.6,28.5c-0.4-0.3-0.8-0.5-1.3-0.7c-0.4-0.2-0.9-0.4-1.4-0.6l5.3-10.8c-1.2-0.6-2.4-1-3.4-1.4c0.2-0.2,0.3-0.4,0.5-0.7
		c0.1-0.2,0.2-0.5,0.3-0.8l9,4.4c-0.2,0.2-0.3,0.4-0.4,0.7c-0.1,0.3-0.2,0.5-0.3,0.8c-1-0.6-1.9-1.3-3-1.8L131.6,28.5 M141.6,27.8
		c0.2-2.9,0.6-5.8,0.9-8.8c0.5,0.4,0.9,0.7,1.4,1.1c0.5,0.3,1,0.6,1.5,0.9c-0.2,1.2-0.4,2.5-0.6,3.8c-0.2,1.2-0.3,2.3-0.3,2.6
		c1.1-0.3,4.2-2.2,5.7-3.2c0.2,0.2,0.5,0.4,0.8,0.6c0.3,0.2,0.5,0.3,0.8,0.5c-2.6,1.3-5.1,2.4-7.5,3.8l-3.4,5
		c-0.4-0.3-0.8-0.6-1.2-0.9c-0.4-0.3-0.8-0.5-1.3-0.7L141.6,27.8 M153.4,39.3c-1.4,0.6-2.6,1.1-3.9,1.8c-0.2-0.2-0.4-0.5-0.6-0.7
		c-0.2-0.2-0.5-0.4-0.7-0.6l13.7-5.1c0.1,0.2,0.3,0.4,0.5,0.6c0.2,0.2,0.3,0.3,0.5,0.5l-6.2,13.2c-0.4-0.4-0.7-0.9-1.1-1.3
		c-0.4-0.4-0.8-0.8-1.2-1.2c0.7-1.3,1.4-2.5,2-3.8L153.4,39.3L153.4,39.3z M157.1,41.5l2.1-4.4l-4.6,1.8L157.1,41.5 M164.6,59.8
		c-1.4-1.2-2.6-2.5-3.6-3.9c-2.2-3.5-2.5-7.7,1.3-10.2c4.1-2.6,8.1-1,10.5,2.8c0.9,1.4,1.5,2.9,1.6,4.6c-0.7,0.1-1.3,0.3-1.9,0.6
		l-0.1-0.2c0.6-1.5,0.4-3-0.4-4.3c-1.8-2.7-5.1-2.5-7.9-0.7c-2.9,1.9-3.6,4.4-2,6.9c0.5,0.8,1.1,1.3,1.6,1.5l3.8-2.5
		c0.2,0.4,0.4,0.9,0.7,1.3c0.3,0.4,0.6,0.8,0.9,1.2L164.6,59.8 M180.3,63.6c-0.3,0.1-0.6,0.1-0.8,0.3c-0.3,0.1-0.5,0.3-0.7,0.4
		c-0.3-1.2-0.7-2.4-1.6-4.2l-3.8,1.7l0.8,1.9c0.4,0.8,0.8,1.5,1.1,2.1c-0.3,0.1-0.6,0.1-0.8,0.3c-0.2,0.1-0.5,0.3-0.7,0.4
		c-0.2-0.7-0.5-1.5-0.8-2.3l-0.8-1.9l-4.5,2c0.8,1.8,1.5,3,2.1,4c-0.3,0.1-0.6,0.1-0.8,0.3c-0.2,0.1-0.5,0.3-0.7,0.4l-3-6.8
		l12.1-5.4L180.3,63.6 M181.8,67.2l0.5,1.9c-2.2,3.5-4.3,7-6.6,10.5l8.8-2.4c0,0.3,0.1,0.5,0.1,0.8c0.1,0.2,0.2,0.5,0.3,0.7
		l-12.9,3.5l-0.4-1.6c1.8-2.8,3.6-5.5,5.3-8.2l1.6-2.6l-9.1,2.5c0-0.2-0.1-0.5-0.1-0.8c-0.1-0.2-0.2-0.5-0.3-0.7L181.8,67.2
		 M175.5,95.1l-1.7-0.3c-0.7-1.1-1.1-2.5-1.2-3.8c-0.4-4.2,1.9-7.5,5.9-7.9c5.1-0.4,7.7,2.8,8.1,7.1c0.1,1.3-0.1,2.9-0.6,4.1
		c-0.7-0.1-1.3-0.2-2-0.3l0-0.3c1-0.8,1.6-2.1,1.5-3.4c-0.3-3.2-3.5-4.3-6.4-4c-3.3,0.3-5.5,2.1-5.2,5.1c0.1,1.2,0.9,2.6,1.8,3.4
		L175.5,95.1 M178.6,100.5c2.6-1.3,5.3-2.4,8-3.7c-0.1,0.6-0.2,1.2-0.2,1.7c0,0.6,0,1.2,0,1.8c-1.1,0.5-2.4,1-3.6,1.4
		c-1.1,0.5-2.1,0.9-2.4,1.1c0.9,0.8,4,2.5,5.6,3.3c-0.1,0.3-0.1,0.6-0.1,1c0,0.3,0,0.6,0,0.9c-2.4-1.6-4.7-3.2-7.1-4.6l-6-0.4
		c0.1-0.5,0.2-1,0.2-1.5c0-0.5,0-1,0-1.5L178.6,100.5 M98.5,176.1c0,0.2-0.1,0.4-0.1,0.6c0,0.2,0,0.4,0.1,0.6
		c-0.8-0.1-1.8-0.2-3.2-0.2l0,3l1.4,0c0.6,0,1.2-0.1,1.7-0.1c0,0.2-0.1,0.4-0.1,0.6c0,0.2,0,0.4,0.1,0.6c-0.5-0.1-1.1-0.1-1.7-0.1
		l-1.4,0l0,3.5c1.4,0,2.3-0.1,3.2-0.2c0,0.2-0.1,0.4-0.1,0.6c0,0.2,0,0.4,0.1,0.6l-5.2,0l0-9.4L98.5,176.1 M72,181.9
		c-0.3-0.1-0.6-0.3-1-0.4c-0.3-0.1-0.7-0.2-1-0.2l2.4-8.1c-0.9-0.3-1.8-0.4-2.5-0.6c0.1-0.2,0.2-0.4,0.2-0.6
		c0.1-0.2,0.1-0.4,0.1-0.6l6.8,2c-0.1,0.2-0.2,0.3-0.2,0.5c-0.1,0.2-0.1,0.4-0.1,0.6c-0.8-0.3-1.5-0.7-2.3-0.9L72,181.9
		 M115.9,183.7c-3,0.7-5.4-0.7-6.1-3.8c-0.6-2.7,0.9-5.3,4.3-6.1c3.9-0.8,5.6,1.6,6.1,3.7C120.8,180.3,119.2,183,115.9,183.7
		L115.9,183.7z M112.2,179.9c0.4,1.8,1.6,3.5,3.6,3c2.1-0.5,2.6-2.8,2.1-5c-0.4-1.8-1.6-3.6-3.7-3.1
		C112.3,175.1,111.5,176.8,112.2,179.9 M104.2,177.7c-0.3-0.7-0.9-1.2-1.7-1.1c-1.1,0-1.5,0.6-1.5,1.4c0.1,1.9,4.3,1.4,4.5,4.6
		c0.1,1.8-1.4,3.1-3.6,3.2c-0.8,0-1.6-0.1-2.3-0.5c0.1-0.6,0.3-1.2,0.3-1.8l0.3,0c0.3,1,1,1.5,2,1.5c0.9,0,1.6-0.6,1.6-1.5
		c-0.1-2.2-4.2-1.3-4.4-4.6c-0.1-1.6,1-3,3.1-3.1c1,0,1.9,0.3,2.2,0.6c-0.1,0.5-0.3,0.9-0.4,1.4L104.2,177.7 M68.4,172.7
		c0-0.8-0.3-1.4-1-1.7c-1-0.4-1.6-0.1-2,0.7c-0.7,1.7,3.3,3.1,2.1,6c-0.7,1.7-2.6,2.3-4.6,1.4c-0.7-0.3-1.4-0.8-1.9-1.4
		c0.4-0.5,0.7-1,1.1-1.5l0.2,0.1c-0.2,1,0.3,1.8,1.2,2.2c0.8,0.3,1.7,0.2,2.1-0.7c0.9-2.1-3.3-2.9-2-6c0.6-1.5,2.2-2.3,4.1-1.5
		c0.9,0.4,1.6,1.1,1.8,1.5c-0.3,0.4-0.6,0.7-0.9,1.1L68.4,172.7 M123.1,175.7l3.2-1.1l0.4,0.9l-3.3,1.2l1.5,4.3l-1.7,0.6l-3.2-8.9
		l5-1.8l0.4,0.9l-3.4,1.2L123.1,175.7L123.1,175.7z"/>
</g>
</svg>
